<svg xmlns="http://www.w3.org/2000/svg" width="22" height="22" viewBox="0 0 22 22">
    <g fill="none" fill-rule="evenodd">
        <g fill="#FFF" fill-rule="nonzero">
            <g>
                <g>
                    <path d="M11 20.167c5.015 0 9.167-4.161 9.167-9.167 0-5.015-4.161-9.167-9.176-9.167-5.006 0-9.158 4.152-9.158 9.167 0 5.006 4.161 9.167 9.167 9.167zm-.027-5.015c-.494 0-.764-.35-.764-.872v-2.498H7.558c-.521 0-.899-.279-.899-.773 0-.503.36-.79.899-.79h2.651V7.557c0-.53.27-.88.764-.88.503 0 .8.332.8.88v2.66h2.651c.548 0 .89.288.89.791 0 .494-.369.773-.89.773h-2.651v2.498c0 .54-.297.872-.8.872z" transform="translate(-16 -343) translate(16 342) translate(0 1)"/>
                </g>
            </g>
        </g>
    </g>
</svg>
