<svg xmlns="http://www.w3.org/2000/svg" width="24" height="24" viewBox="0 0 24 24">
    <defs>
        
    </defs>
    <g fill="none" fill-rule="evenodd"   transform="translate(-176 -12)">
        <path fill="#fff" fill-rule="nonzero" d="M188 13c6.075 0 11 4.925 11 11s-4.925 11-11 11-11-4.925-11-11 4.925-11 11-11zm0 2c-4.97 0-9 4.03-9 9s4.03 9 9 9 9-4.03 9-9-4.03-9-9-9zm0 4c.552 0 1 .448 1 1v3h3c.552 0 1 .448 1 1s-.448 1-1 1h-3v3c0 .552-.448 1-1 1s-1-.448-1-1v-3h-3c-.552 0-1-.448-1-1s.448-1 1-1h3v-3c0-.552.448-1 1-1z"/>
    </g>
</svg>
