<svg xmlns="http://www.w3.org/2000/svg" width="24" height="24" viewBox="0 0 24 24">
    <g fill="none">
        <rect width="24" height="24" fill="#0a84ff" rx="4"/>
        <path fill="#FFF" d="M12 2.833c5.063 0 9.167 4.104 9.167 9.167S17.063 21.167 12 21.167 2.833 17.063 2.833 12 6.937 2.833 12 2.833zM12 4.5c-4.142 0-7.5 3.358-7.5 7.5 0 4.142 3.358 7.5 7.5 7.5 4.142 0 7.5-3.358 7.5-7.5 0-4.142-3.358-7.5-7.5-7.5zm0 3.333c.46 0 .833.373.833.834v2.5h2.5c.46 0 .834.373.834.833 0 .46-.373.833-.834.833h-2.5v2.5c0 .46-.373.834-.833.834-.46 0-.833-.373-.833-.834v-2.5h-2.5c-.46 0-.834-.373-.834-.833 0-.46.373-.833.834-.833h2.5v-2.5c0-.46.373-.834.833-.834z"/>
    </g>
</svg>
