<svg width="214" height="62" viewBox="0 0 214 62" xmlns="http://www.w3.org/2000/svg">
    <desc>Created with Sketch Beta.</desc>
    <g fill="none" fill-rule="evenodd">
        <g transform="translate(-1.000000, 0.000000)">
            <path opacity=".01" fill="#fff" d="M207 1h8v19h-8z"/>
            <path d="M137.246 22.4c-.8-.773-8.606-8.905-8.606-8.905-.426-.414-.64-.954-.64-1.495 0-.543.214-1.083.64-1.495 0 0 7.807-8.132 8.606-8.906.8-.774 2.237-.827 3.09 0 .85.825.92 1.976 0 2.987L133.173 12l7.163 7.41c.92 1.012.85 2.165 0 2.99-.854.826-2.292.774-3.09 0zM149.754 22.4c.8-.773 8.606-8.905 8.606-8.905.426-.414.64-.954.64-1.495 0-.543-.214-1.083-.64-1.495 0 0-7.807-8.132-8.606-8.906-.8-.774-2.237-.827-3.09 0-.85.825-.92 1.976 0 2.987L153.827 12l-7.163 7.41c-.92 1.012-.85 2.165 0 2.99.854.826 2.292.774 3.09 0z"
                  fill="#000"/>
            <path d="M65.517 2.14c.643-1.095 2.056-1.462 3.163-.834 1.12.632 1.49 2.02.85 3.107l-15.55 26.45 15.71 26.723c.643 1.095.26 2.48-.847 3.107-1.114.632-2.523.255-3.163-.833L49.472 32.3c-.06-.1-.11-.2-.15-.305-.413-.684-.444-1.56-.01-2.296L65.517 2.14zm8.966 0c-.643-1.095-2.056-1.462-3.163-.834-1.12.632-1.49 2.02-.85 3.107l15.553 26.45L70.31 57.586c-.643 1.095-.26 2.48.847 3.107 1.114.632 2.523.255 3.163-.833L90.528 32.3c.06-.1.11-.2.15-.305.413-.684.444-1.56.01-2.296L74.483 2.14z"
                  id="Shape" stroke="#fff" stroke-width=".847" opacity=".2" fill="#000"/>
            <path d="M16.563 3.603c-.56.553-6.476 5.957-6.476 5.957-.3.298-.694.444-1.087.444-.395 0-.788-.146-1.087-.444 0 0-5.915-5.402-6.478-5.954-.56-.56-.6-1.55 0-2.14.602-.59 1.44-.64 2.174 0L8.99 6.42l5.39-4.96c.736-.638 1.575-.59 2.175 0 .602.59.563 1.586 0 2.14h.004l.002.003z"
                  id="Shape" fill="#6A6A6A"/>
            <path d="M39.4 4.2h-16V1L17 6.44l6.4 5.12V8.68h16V4.2zM49 14.64L42.6 9.2v3.2h-16v4.48h16v2.88l6.4-5.12z"
                  id="Shape" opacity=".2" fill="#000"/>
            <path d="M101.112 17.536c-.614-.597-6.62-6.88-6.62-6.88-.327-.32-.492-.738-.492-1.156 0-.42.165-.837.493-1.155 0 0 6.005-6.284 6.62-6.882.614-.596 1.72-.638 2.376 0 .65.64.7 1.528 0 2.31L97.98 9.5l5.51 5.726c.707.782.653 1.673 0 2.31-.658.64-1.764.6-2.378 0zm8.776 0c.614-.597 6.62-6.88 6.62-6.88.327-.32.492-.738.492-1.156 0-.42-.165-.837-.493-1.155 0 0-6.005-6.284-6.62-6.882-.614-.596-1.72-.638-2.376 0-.65.64-.7 1.528 0 2.31l5.51 5.727-5.51 5.726c-.7.782-.65 1.673 0 2.31.66.64 1.77.6 2.38 0z"
                  fill="#4C4C4C"/>
            <path d="M191.112 17.536c-.614-.597-6.62-6.88-6.62-6.88-.327-.32-.492-.738-.492-1.156 0-.42.165-.837.493-1.155 0 0 6.005-6.284 6.62-6.882.614-.596 1.72-.638 2.376 0 .65.64.7 1.528 0 2.31L187.98 9.5l5.51 5.726c.707.782.653 1.673 0 2.31-.658.64-1.764.6-2.378 0zm8.776 0c.614-.597 6.62-6.88 6.62-6.88.327-.32.492-.738.492-1.156 0-.42-.165-.837-.493-1.155 0 0-6.005-6.284-6.62-6.882-.614-.596-1.72-.638-2.376 0-.65.64-.7 1.528 0 2.31l5.51 5.727-5.51 5.726c-.7.782-.65 1.673 0 2.31.66.64 1.77.6 2.38 0z"
                  fill="#fff"/>
            <path d="M121.186 1.162c.243.205 2.62 2.37 2.62 2.37.13.11.194.255.194.4 0 .144-.065.288-.195.398 0 0-2.376 2.166-2.62 2.372-.242.206-.68.22-.94 0-.258-.22-.28-.527 0-.796l2.18-1.975-2.18-1.97c-.28-.27-.258-.578 0-.797.26-.22.698-.207.94 0v.003-.003z"
                  fill="#373737"/>
            <path d="M178.203 8.035c-.548-.608-6.326-6.548-6.326-6.548-.294-.324-.678-.487-1.062-.487-.386 0-.77.163-1.062.487 0 0-5.778 5.94-6.328 6.548-.548.61-.586 1.702 0 2.35.588.65 1.406.7 2.124 0l5.264-5.45 5.264 5.45c.718.7 1.537.65 2.123 0 .59-.65.55-1.742 0-2.35zM178.203 17.965c-.548.608-6.326 6.548-6.326 6.548-.294.324-.678.487-1.062.487-.386 0-.77-.163-1.062-.487 0 0-5.778-5.94-6.328-6.548-.548-.61-.586-1.702 0-2.35.588-.65 1.406-.7 2.124 0l5.264 5.45 5.264-5.45c.718-.7 1.537-.65 2.123 0 .59.65.55 1.742 0 2.35z"
                  fill="#CD1719"/>
            <path d="m178.203,36.635341c-0.548,-0.608 -6.326,-6.548 -6.326,-6.548c-0.294,-0.324 -0.678,-0.487 -1.062,-0.487c-0.386,0 -0.77,0.163 -1.062,0.487c0,0 -5.778,5.94 -6.328,6.548c-0.548,0.61 -0.586,1.702 0,2.35c0.588,0.65 1.406,0.7 2.124,0l5.264,-5.45l5.264,5.45c0.718,0.7 1.537,0.65 2.123,0c0.59,-0.65 0.55,-1.742 0,-2.35l0.003,0zm0,9.93c-0.548,0.608 -6.326,6.548 -6.326,6.548c-0.294,0.324 -0.678,0.487 -1.062,0.487c-0.386,0 -0.77,-0.163 -1.062,-0.487c0,0 -5.778,-5.94 -6.328,-6.548c-0.548,-0.61 -0.586,-1.702 0,-2.35c0.588,-0.65 1.406,-0.7 2.124,0l5.264,5.45l5.264,-5.45c0.718,-0.7 1.537,-0.65 2.123,0c0.59,0.65 0.55,1.742 0,2.35l0.003,0z"
                  fill="#fff"/>
        </g>
    </g>
</svg>