<svg xmlns="http://www.w3.org/2000/svg" width="32" height="32" viewBox="0 0 32 32">
    <g fill="none" fill-rule="evenodd">
        <g fill="#FFF" fill-rule="nonzero">
            <g>
                <g>
                    <g>
                        <path d="M6.544 25.504c.375 0 .691-.127.949-.382.258-.254.387-.568.387-.943V22.46l.175.012c.752.05 1.581.09 2.486.122.904.032 1.826.059 2.766.08.94.02 1.838.032 2.693.032s1.753-.011 2.693-.032c.94-.021 1.862-.048 2.766-.08.905-.032 1.734-.072 2.486-.122l.174-.012.001 1.719c0 .375.13.69.387.943.258.255.574.382.949.382h1.198c.374 0 .692-.127.954-.382.261-.254.392-.568.392-.943v-5.883c0-.573-.042-1.076-.127-1.511-.085-.435-.22-.84-.403-1.219-.184-.378-.431-.769-.742-1.171l-.87-1.113c-.12-.601-.266-1.195-.44-1.781-.172-.587-.344-1.113-.513-1.58-.17-.466-.311-.827-.424-1.081-.276-.58-.67-1.04-1.182-1.378-.513-.34-1.108-.559-1.787-.658-.24-.028-.627-.053-1.16-.074-.534-.02-1.174-.037-1.92-.047-.745-.011-1.556-.016-2.432-.016-.876 0-1.689.005-2.438.016-.75.01-1.389.026-1.919.047s-.915.046-1.155.074c-.679.085-1.274.3-1.787.647-.512.346-.906.81-1.182 1.389-.113.254-.254.615-.424 1.081-.17.467-.34.993-.514 1.58-.173.586-.32 1.18-.44 1.78l-.869 1.114c-.31.402-.558.793-.742 1.171-.184.378-.318.784-.403 1.219-.085.435-.127.938-.127 1.51v5.884c0 .375.129.69.387.943.258.255.578.382.96.382h1.197zM23.22 12.953l-1.776-.09c-.646-.032-1.411-.059-2.295-.08-.883-.02-1.932-.032-3.148-.032-1.223 0-2.274.011-3.154.032-.88.021-1.643.048-2.29.08l-1.775.09c-.212.014-.359-.025-.44-.117-.081-.092-.1-.236-.058-.434.077-.354.176-.723.297-1.108.12-.385.243-.746.37-1.081.128-.336.24-.6.34-.79.141-.247.3-.431.477-.551.176-.12.41-.198.7-.234.374-.056 1.005-.099 1.892-.127.887-.028 2.1-.042 3.641-.042 1.54 0 2.756.012 3.647.037.89.025 1.516.069 1.876.132.297.043.532.122.705.239.173.117.334.299.482.546.106.184.221.443.345.779.123.336.244.698.36 1.087.117.388.214.76.292 1.113.056.198.042.342-.043.434-.084.092-.233.131-.445.117zM8.707 19.939c-.474 0-.868-.157-1.182-.472-.315-.314-.472-.705-.472-1.171 0-.467.157-.857.472-1.172.314-.314.708-.471 1.182-.471.466 0 .857.157 1.171.471.315.315.472.705.472 1.172 0 .466-.157.857-.472 1.171-.314.315-.705.472-1.171.472zm14.586 0c-.466 0-.857-.157-1.171-.472-.315-.314-.472-.705-.472-1.171 0-.467.157-.857.472-1.172.314-.314.705-.471 1.171-.471.474 0 .868.157 1.182.471.315.315.472.705.472 1.172 0 .466-.157.857-.472 1.171-.314.315-.708.472-1.182.472zm-4.611-.403h-5.364c-.353 0-.64-.11-.859-.329-.219-.219-.328-.505-.328-.858 0-.354.11-.64.328-.859.22-.22.506-.329.859-.329h5.364c.353 0 .64.11.859.329.219.22.328.505.328.859 0 .353-.11.64-.328.858-.22.22-.506.329-.859.329z" transform="translate(-24 -1606) translate(16 1542) translate(0 56) translate(8 8)"/>
                    </g>
                </g>
            </g>
        </g>
    </g>
</svg>
