<svg xmlns="http://www.w3.org/2000/svg" width="32" height="32" viewBox="0 0 32 32">
    <g fill="none" fill-rule="evenodd">
        <g fill="#FFF" fill-rule="nonzero">
            <g>
                <g>
                    <g>
                        <path d="M24 2.667H6.857C5.28 2.667 4 3.946 4 5.524V24.57c0 .813.346 1.587.952 2.128v1.087c0 .854.693 1.547 1.548 1.547h1.667c.854 0 1.547-.693 1.547-1.547v-.357h11.429v.357c0 .854.693 1.547 1.547 1.547h1.667c.855 0 1.548-.693 1.548-1.547v-1.087c.606-.541.952-1.315.952-2.128V5.524c0-1.578-1.279-2.857-2.857-2.857zM8.968 24.56c-.803.087-1.574-.342-1.923-1.07-.35-.73-.2-1.6.37-2.17.572-.572 1.442-.72 2.17-.372.73.35 1.158 1.12 1.071 1.924-.097.89-.799 1.591-1.688 1.688zm5.27-6.656h-7.38c-.527 0-.953-.427-.953-.953V9.333c0-.526.426-.952.952-.952h7.381c.132 0 .238.107.238.238v9.048c0 .131-.106.238-.238.238zm1.19-11.429H6.886c-.512 0-.953-.393-.979-.904-.013-.26.081-.515.26-.704.18-.19.43-.297.691-.297h17.116c.512 0 .952.393.978.905.013.26-.08.515-.26.704-.18.19-.43.296-.691.296h-8.571zm1.191 1.905H24c.526 0 .952.426.952.952v7.62c0 .525-.426.952-.952.952h-7.381c-.131 0-.238-.107-.238-.238V8.619c0-.131.107-.238.238-.238zm3.582 14.492c-.087-.803.342-1.574 1.07-1.924.73-.349 1.6-.2 2.17.371.572.572.72 1.442.371 2.17-.349.73-1.12 1.158-1.923 1.07-.89-.096-1.591-.798-1.688-1.687z" transform="translate(-439 -1725) translate(185 1481) translate(246 236) translate(8 8)"/>
                    </g>
                </g>
            </g>
        </g>
    </g>
</svg>
