<svg xmlns="http://www.w3.org/2000/svg" width="24" height="24" viewBox="0 0 24 24">
    <g fill="none" fill-rule="evenodd">
        <g fill="#FFF" fill-rule="nonzero">
            <g>
                <g>
                    <g>
                        <path d="M14.22 5.236c1.208-1.2 3.136-1.573 4.687-.91.201.087.346.267.387.481.041.215-.026.435-.18.59l-1.988 1.988c-.167.17-.167.442 0 .612l.878.878c.17.167.442.167.612 0l1.998-1.998c.15-.15.364-.219.574-.184.21.036.39.17.483.362.315.647.41 1.515.26 2.383-.16.919-.574 1.746-1.168 2.332-1.033 1.016-2.634 1.328-4.392.86-.154-.042-.318.006-.426.123L9.614 19.52c-.549.609-1.39.866-2.185.667-.795-.198-1.416-.82-1.614-1.615-.199-.796.059-1.636.668-2.184l6.754-6.276c.12-.11.168-.277.124-.433-.502-1.785-.188-3.402.859-4.442zm1.97 9.084c1.185 1.087 2.349 2.134 2.893 2.587.25.206.4.509.415.833.015.323-.108.638-.337.867l-1.306 1.304c-.222.217-.516.338-.823.339h-.043c-.323-.012-.626-.157-.838-.4-.44-.512-1.439-1.6-2.542-2.772zM10.07 4c1.084 0 1.909.485 2.227.772.135.125.26.26.375.405.062.076.103.132.113.146.154.21.16.493.019.71-.143.218-.405.325-.659.269-.028-.007-.056-.015-.084-.025-.09-.033-.182-.06-.275-.083-.195-.041-.395-.053-.594-.037-.426.035-.928.243-1.15.415-.212.163-.372.385-.46.639-.118.345-.06.726.156 1.02l.959 1.321.025.027.008.01c.316.015.615.143.844.36l-2.587 2.404c-.192-.246-.292-.552-.282-.864-.918-.916-1.445-1.276-1.63-1.388-.249-.151-.424-.177-.457-.18-.043-.005-.083.015-.105.05-.022.035-.022.08 0 .115.078.126.118.272.117.42.001.217-.085.425-.24.576l-1.151 1.125c-.152.15-.357.232-.57.23-.214 0-.42-.084-.573-.234l-1.855-1.81-.022-.022c-.295-.317-.291-.81.01-1.122l.012-.013 1.15-1.121c.152-.15.357-.232.57-.23h.043c.147.009.278-.096.3-.242.025-.165.087-.323.184-.46.256-.34.537-.662.84-.961.455-.442 1.435-1.267 2.934-1.87C8.837 4.119 9.451 4 10.071 4z" transform="translate(-433 -466) translate(185 454) translate(209 4) translate(39 8)"/>
                    </g>
                </g>
            </g>
        </g>
    </g>
</svg>
