<svg xmlns="http://www.w3.org/2000/svg" width="24" height="24" viewBox="0 0 24 24">
    <g fill="none">
        <rect width="24" height="24" fill="#0a84ff" rx="4"/>
        <path fill="#FFF" d="M17.002 10.333l-5.001-5-5.001 5v8.334h10v-8.334h.002zM18.668 12v6.668c0 .92-.747 1.666-1.667 1.666H7c-.92 0-1.667-.746-1.667-1.666v-6.668l-.642.642c-.325.325-.852.325-1.177 0-.325-.325-.325-.853 0-1.178l7.308-7.309c.65-.65 1.705-.65 2.355 0l7.31 7.31c.324.324.324.852 0 1.177-.326.325-.853.325-1.179 0l-.641-.642z"/>
    </g>
</svg>
