<svg xmlns="http://www.w3.org/2000/svg" width="36" height="36" viewBox="0 0 36 36">
    <defs>
        <linearGradient id="prefix__a" x1="50%" x2="50%" y1="0%" y2="100%">
            <stop offset="0%" stop-color="#FC802A"/>
            <stop offset="100%" stop-color="#E44627"/>
        </linearGradient>
    </defs>
    <path fill="url(#prefix__a)" d="M17.988 3c3.46-.002 6.819 1.175 9.521 3.338 2.642 2.126 4.479 5.09 5.171 8.347.213.99.32 2 .32 3.013 0 3.946-1.516 7.653-4.27 10.441-2.777 2.81-6.507 4.357-10.502 4.357-1.408 0-3.205-.362-4.069-.603-1.04-.29-2.024-.668-2.133-.71-.115-.044-.236-.066-.36-.067-.133 0-.265.026-.388.077l-.057.022-4.52 1.632c-.221.093-.458.145-.699.153-.948-.004-1.714-.775-1.712-1.724.004-.173.03-.345.08-.51l1.234-4.464c.051-.165-.007-.329-.083-.462l-.014-.027c-.006-.009-.03-.044-.05-.07L5.4 25.66l-.013-.018C3.83 23.283 3 20.517 3 17.69c-.012-3.857 1.497-7.503 4.25-10.264C10.098 4.572 13.909 3 17.988 3zm-6.416 12.857c-1.184 0-2.143.96-2.143 2.143 0 1.183.96 2.143 2.143 2.143 1.183 0 2.142-.96 2.142-2.143 0-1.183-.959-2.143-2.142-2.143zm6.428 0c-1.183 0-2.143.96-2.143 2.143 0 1.183.96 2.143 2.143 2.143 1.184 0 2.143-.96 2.143-2.143 0-1.183-.96-2.143-2.143-2.143zm6.429 0c-1.184 0-2.143.96-2.143 2.143 0 1.183.96 2.143 2.143 2.143 1.183 0 2.143-.96 2.143-2.143 0-1.183-.96-2.143-2.143-2.143z"/>
</svg>
