<svg height="127" viewBox="0 0 198 127" width="198" xmlns="http://www.w3.org/2000/svg"><g fill="none" fill-rule="evenodd"><g transform="translate(.330184 .917431)"><path d="m39.910833 68.845358h32.536997v33.190018h-32.536997z" fill="#fff" stroke="#646464" stroke-width="1.232"/><path d="m.62453825 125.340771-.00007356-11.185164c-.14578665-9.183209 1.58943146-16.8360779 5.23071331-22.9509471 2.76668103-4.6461366 13.2551205-7.7066871 31.1675284-9.4529495.7167859-.0698787 6.8957143 1.0892685 18.5257024 8.3570845 12.2215187-7.5526858 18.9153538-8.2451658 20.7411026-8.0816679 9.5215418.8526648 17.6994784.5952248 24.3897046.3838146 6.887593-.217647 12.17623-.4059377 15.694221.7864018.920732.3120603 1.557239.8450891 1.956397 1.5660929.466133.8419823.618554 1.9177683.5736 3.1528541-.128384 3.5272578-1.871367 8.2883855-3.5856 13.0127436-1.775961 4.894481-3.519911 9.750568-3.575171 13.236351v11.175386z" fill="#e8e8e8" stroke="#646464" stroke-width="1.232"/><path d="m39.1670427 82.6890539-.3917047.041716c-16.0020866 1.7004237-25.3099506 4.5694385-27.9235923 8.6070442-3.69280438 5.7047179-5.46526023 12.8419549-5.31736754 21.4117099v12.030293h-4.29787234v-12.030293c-.14789269-8.569755 1.62456316-15.706992 5.31736755-21.4117099 2.80966477-4.3404262 13.35534033-7.3303994 31.63702673-8.9699196.1349578-.0121031.4603386.09495.9761426.3211594z" fill="#dcdcdc"/><path d="m50.9651771 83.5963303c-5.390728 0-10.4423807-3.1675039-10.4423807-4.8227572 0-1.6552532 0-7.974844 0-7.974844l29.3726734 1.72898s-6.289404 11.0686212-18.9302927 11.0686212z" fill="#f4f4f4"/><path d="m59.7662702 76.1367949c5.5671651 0 16.277431-6.751012 19.8004489-14.6201812 1.6708551-3.7320963 1.2706653-12.1018435.7808661-23.2898691-.8162368-18.6445351-4.1938827-29.62124001-23.861263-29.62124001s-24.8261546 13.28288211-24.8261546 31.95416011c0 7.5559752-.8309596 17.6257709.9672674 20.956949 3.0329981 5.6185662 13.231794 14.6201812 20.0088543 14.6201812z" fill="#fff" stroke="#646464" stroke-width="1.232"/><g fill="#f4f4f4"><path d="m72.6945974 21.5444481c2.2156085.2019774 4.1019153 2.4592462 5.6589203 6.7718063-1.0788621-1.5126776-2.3512044-2.3354327-3.816975-2.469054-5.2788763-.4812284-14.1546594 4.8567533-18.6722083 4.8567533-4.1538496 0-6.9090997-4.8567533-12.5625675-4.8567533-4.9049371 0-9.9479618 2.6909154-9.9479618 17.0512207 0 .6971047-.8849057 1.3625586-2.654717 1.9963616.0640195-1.8372034.132775-3.6110932.2062666-5.3216694.4042505-.3181348.6065051-.6441726.6065051-.9774445 0-14.3603052 5.0430247-17.0512207 9.9479618-17.0512207 5.6534678 0 8.4087179 4.8567533 12.5625675 4.8567533 4.517549 0 13.393332-5.3379817 18.6722083-4.8567533z"/><path d="m77.1613284 64.7691006c-1.2924346 1.8639003-2.8449528 2.9479114-6.1575241 6.2930892-2.3472115 2.3703157-8.085373 4.4599262-10.0750605 4.4599262h-2.4699185c3.6864558 0 12.5688627-4.9590701 18.5689927-10.6265115zm-19.3094577-56.77827491c18.4496922 0 21.6182142 10.97670491 22.3839145 29.62124001.1628041 3.9642222.2512322 7.6173362.2278255 10.8481332-1.2283455-2.716774-2.5019954-6.0817238-2.697744-10.8481332-.7657002-18.6445351-1.9831225 8.8104911-20.4328147 8.8104911-11.2937992 0-18.8899656-4.1651975-22.7708968-6.1260409l.0006499-.3515301c0-18.671278 4.8393734-31.95416011 23.2890656-31.95416011z"/><path d="m76.4668698 23.5068197c1.1741983.1848283 1.8863704.5577922 2.0262165 1.2071006.8153777 3.7858129 1.2134001 8.1637766 1.4283394 13.0734342.4897992 11.1880256.889989 19.5577729-.7808662 23.2898691-3.5230178 7.8691693-14.2332838 14.6201813-19.8004488 14.6201813h-7.1299809c-.9171055 0-1.8968728-.1648453-2.9130639-.4638442.3652695.0457253.7227157.0695157 1.0711186.0695157h7.1299809c5.567165 0 16.277431-6.751012 19.8004489-14.6201812 1.6708551-3.7320963 1.2706653-12.1018435.7808661-23.2898691-.2285463-5.2204699-.6579071-9.8397818-1.5894465-13.7852994z"/></g><g fill="#fff" stroke="#646464" stroke-width="1.232" transform="translate(25.787234 37.495413)"><path d="m59.0199284 3.08931086c.4495787 2.86658003-.1505901 8.86740234-1.1324298 11.71713464-.1675613.486337-.486269.8645304-.9494673 1.1398996-.3956638.2352203-.8873699.3974082-1.4718589.4954824l-.9685609-15.17300284c1.3299273-.37185004 2.3893975-.44176192 3.1707826-.14755012.362478.13648237.6541439.3572696.8730582.66485953.2416741.33956895.3958457.77631344.4784761 1.30317679z" transform="matrix(.99862953 .05233596 -.05233596 .99862953 .534789 -2.96166)"/><path d="m6.08425353 3.33322537c.44919805 2.81503438-.15060295 8.70790543-1.13160208 11.50636843-.16696422.4762932-.48520835.8459119-.94653643 1.1154658-.39681796.2318607-.89004406.3916274-1.47649992.4881227l-.96724205-14.89248652c1.33110778-.36538693 2.39130521-.43332366 3.17335996-.14390966.36217138.13402831.65394169.35043357.87273138.65257636.24034944.33191623.39361991.75892475.47578914 1.27386289z" transform="matrix(-.99862953 .05233596 .05233596 .99862953 7.294384 -.19101)"/></g><g fill="#646464" transform="translate(40.522796 36.266055)"><path d="m23.7220989 9.83273702c-.4892075 0-.8180766-.49913634-.6366719-.95492045.3791943-.94789036 1.3049432-1.6180922 2.3863491-1.6180922 1.0825762 0 2.0083252.67020184 2.3875195 1.6180922.1814046.45578411-.1474645.95492045-.6366719.95492045z"/><path d="m4.4327137 9.83273702c-.56762104 0-.97958518-.59287086-.73498148-1.10489569.4131345-.86821601 1.29675077-1.46811696 2.32080936-1.46811696s1.90767485.59990095 2.32080935 1.46811696c.24460371.51202483-.16736043 1.10489569-.73498148 1.10489569z"/></g><path d="m53.4505729 54.8705063c-.5426746-.1555183-.8564244-.7223414-.7000605-1.2656322.1553419-.5432909.7215222-.8543274 1.2641969-.7008554 1.3888791.4000503 2.9014186.4000503 4.2933637-.0020463.5436966-.1544951 1.1098769.1565414 1.2652188.7008554.1563639.5422676-.1563638 1.110114-.6990385 1.2656322-.880952.2537404-1.7946076.3826568-2.7164391.3826568-.9197875 0-1.8303772-.1278933-2.7072413-.3806105z" fill="#646464"/><g transform="translate(47.890578 59.623853)"><path d="m13.3863367.40300335c1.5248033 0 2.5488334 1.55620588 1.9826531 2.97326382-1.179372 2.95177775-4.0623949 5.03695038-7.43188313 5.03695038-3.36948828 0-6.25251116-2.08517263-7.43188316-5.03695038-.56618032-1.41705794.45784979-2.97326382 1.9826531-2.97326382z" fill="#646464"/><path d="m11.3941061 3.14401291h-7.16207885c-1.22127343 0-2.21157799-.99142899-2.21157799-2.21306595v-.52794361h11.58421284v.52794361c0 1.22163696-.9892826 2.21306595-2.210556 2.21306595" fill="#f4f4f4"/><path d="m4.02829168 7.45618526c1.11600885.59137869 2.52505826.98424443 3.87612393.98424443 1.35106566 0 2.47245389-.27691528 3.58846279-.86829397.0826115-.74974019.141964-2.19900609-3.73229337-2.14382689-3.87425735.0551792-3.73229335 1.4805834-3.73229335 2.02787643z" fill="#dcdcdc"/></g><path d="m42.9998484 22.6551702c-4.0147082 0-8.9437036 2.6523843-10.8332754 16.6610785-3.5340023-4.4685482-5.5514386-11.1779054-4.4507892-15.8186307 2.3927594-10.0887151 9.0731125-10.6846882 11.8099081-12.0323521 2.0921359-1.0302179-1.099574-3.84133952-7.3591189-2.51660749 5.453034-4.12887827 9.1526451-9.05031424 26.848972-8.94706071 17.4718835.38585877 30.1984378 8.45794841 21.675313 35.9956972-1.3645223-7.1784887-1.8979969-10.6925822-6.1081664-13.3421247-6.5236903 4.3221234-10.8818038 5.2829812-15.5671466 4.9883771-4.6853427-.2946041-12.3609068-2.9293059-16.0156966-4.9883771z" fill="#dcdcdc" stroke="#646464" stroke-width="1.232"/><path d="m36.4483221 6.73833499c2.2161529-1.74572951 11.5269993-7.86164686 25.1055516-5.64620645s17.6682025 8.12113135 16.1533202 12.98947076c-1.5148823 4.8683394-14.9344674 6.4809549-19.3129497 5.8693338-4.4203264-.6174662-9.1318518-4.5751366-11.8017497-8.3029171-2.6698979-3.72778049-2.155445-4.90968101-6.8199431-4.90968101-4.664498 0-5.5403823 1.74572952-3.3242293 0z" fill="#fff" opacity=".612715"/><g fill="#646464" transform="translate(40.522796 36.266055)"><path d="m2.07705785 4.67717927c-.6355015 0-1.21950749-.41711863-1.40559356-1.05802842-.22353736-.77799654.22470771-1.58997184 1.00065153-1.81376302 2.66372269-.76627972 5.57438979-.76862308 8.23577177-.00351504.77594381.22261949 1.22535921 1.03459479 1.00182191 1.81259133-.2235374.77682486-1.03693249 1.22557888-1.81053561 1.00178771-2.13706398-.61396112-4.48011003-.61278944-6.61600366.00351504-.13576091.0386655-.27152182.0574124-.40611238.0574124" transform="matrix(.9961947 -.08715574 .08715574 .9961947 -.23536 .515917)"/><path d="m21.7512533 4.67849833c-.6355015 0-1.2195075-.41711863-1.4055936-1.05802843-.2235374-.77799653.2247077-1.58997184 1.0006515-1.81376301 2.661382-.7674514 5.5720491-.77096645 8.2357718-.00351504.7771142.22261949 1.2253593 1.03459479 1.0018219 1.81259133-.222367.77682485-1.0357621 1.22557888-1.8093652 1.00178771-2.1394047-.61396112-4.4824508-.61278944-6.6171741.00351504-.1357609.03866549-.2715218.0574124-.4061123.0574124" transform="matrix(.99026807 .1391731 -.1391731 .99026807 .658929 -3.515265)"/></g><ellipse cx="69.042453" cy="53.753873" fill="#f4f4f4" rx="3.346404" ry="3.350204"/><ellipse cx="42.027255" cy="54.368552" fill="#f4f4f4" rx="3.346404" ry="3.350204"/></g><g transform="translate(80.761795 2.146789)"><path d="m40.524815 67.616h32.536997v33.190018h-32.536997z" fill="#fff" stroke="#646464" stroke-width="1.232"/><path d="m51.5791589 82.3669725c-5.390728 0-10.4423808-3.1675039-10.4423808-4.8227572 0-1.6552532 0-7.974844 0-7.974844l29.3726735 1.72898s-6.289404 11.0686212-18.9302927 11.0686212z" fill="#f4f4f4"/><path d="m60.380252 74.9074371c5.567165 0 16.277431-6.751012 19.8004488-14.6201812 1.6708552-3.7320963 1.2706654-12.1018435.7808662-23.2898691-.8162368-18.6445351-4.1938827-29.62124001-23.861263-29.62124001-19.6673804 0-24.8261547 13.28288211-24.8261547 31.95416011 0 7.5559753-.8309595 17.6257709.9672674 20.956949 3.0329982 5.6185662 13.2317941 14.6201812 20.0088544 14.6201812z" fill="#fff" stroke="#646464" stroke-width="1.232"/><g transform="translate(.306991 79.908257)"><path d="m.62453825 44.2031561-.00007356-11.1851637c-.14578665-9.1832093 1.58943146-16.836078 5.23071331-22.9509472 2.76668103-4.64613656 13.2551205-7.70668704 31.1675284-9.45294946.7241609-.07059771 7.0109483 3.78336395 18.8408445 11.26946856 11.9058229-7.34281673 18.5983139-11.1577198 20.4259605-10.99405197 19.0283885 1.70401368 27.3644276 4.37789452 30.2225156 9.17753287 3.641282 6.1148692 5.3765 13.7677379 5.230636 22.9607252v11.1753857z" fill="#e8e8e8" stroke="#646464" stroke-width="1.232"/><g fill="#dcdcdc"><path d="m39.1670427 1.55143925-.3917047.04171594c-16.0020866 1.70042376-25.3099506 4.56943851-27.9235923 8.60704421-3.69280438 5.7047179-5.46526023 12.8419547-5.31736754 21.4117103v12.0302921h-4.29787234v-12.0302921c-.14789269-8.5697556 1.62456316-15.7069924 5.31736755-21.4117103 2.80966477-4.34042613 13.35534033-7.33039933 31.63702673-8.96991958.1349578-.01210315.4603386.09495.9761426.32115943z"/><path d="m111.002909 1.55143925-.391705.04171594c-16.0020863 1.70042376-25.3099504 4.56943851-27.923592 8.60704421-3.6928044 5.7047179-5.4652603 12.8419547-5.3173676 21.4117103v12.0302921h-4.2978723v-12.0302921c-.1478927-8.5697556 1.6245631-15.7069924 5.3173675-21.4117103 2.8096648-4.34042613 13.3553404-7.33039933 31.6370264-8.96991958.134958-.01210315.460339.09495.976143.32115943z" transform="matrix(-1 0 0 1 184.067596 0)"/></g></g><path d="m60.2248493 74.2927582c2.4995078 0 5.8362973-1.1807832 9.8114545-3.7987306 5.3239835-3.5302375 8.0962139-7.4383127 9.3039601-9.8400815 1.2077463-2.4017689 1.192867-4.4835949 1.3711315-7.1784388-16.2200959 6.3954717-13.8534304 1.921852-23.8148802 1.921852-8.9521144 0-9.3422548 3.957807-24.1691774-2.1003018.0744282 2.0655343.158802 4.2850066.7369029 5.9507245.8613448 2.4818457 4.5632885 6.6754915 8.5098462 9.773681 4.2940529 3.3709857 8.3049521 5.2712952 11.1207815 5.2712952z" fill="#c4c4c4"/><path d="m73.3085792 20.3150903c2.2156085.2019774 4.1019153 2.4592462 5.6589203 6.7718063-1.0788622-1.5126776-2.3512044-2.3354327-3.8169751-2.469054-5.2788762-.4812284-14.1546593 4.8567533-18.6722082 4.8567533-4.1538496 0-6.9090997-4.8567533-12.5625676-4.8567533-4.9049371 0-9.9479618 2.6909154-9.9479618 17.0512207 0 .6971047-.8849056 1.3625586-2.6547169 1.9963616.0640194-1.8372034.1327749-3.6110932.2062665-5.3216694.4042506-.3181348.6065051-.6441726.6065051-.9774445 0-14.3603052 5.0430248-17.0512207 9.9479618-17.0512207 5.6534679 0 8.408718 4.8567533 12.5625676 4.8567533 4.5175489 0 13.393332-5.3379817 18.6722083-4.8567533z" fill="#dcdcdc" opacity=".32"/><path d="m77.7753102 63.5397428c-1.2924347 1.8639003-2.8449528 2.9479114-6.1575242 6.2930892-2.3472114 2.3703157-8.0853729 4.4599262-10.0750605 4.4599262h-2.4699185c3.6864558 0 12.5688628-4.9590701 18.5689928-10.6265115zm-19.3094577-56.77827491c18.4496922 0 21.6182142 10.97670491 22.3839145 29.62124001.162804 3.9642222.2512322 7.6173362.2278255 10.8481332-1.2283455-2.716774-2.5019955-6.0817238-2.697744-10.8481332-.7657003-18.6445351-1.9831225 8.8104911-20.4328147 8.8104911-11.2937992 0-18.8899656-4.1651975-22.7708968-6.1260409l.0006499-.3515301c0-18.671278 4.8393734-31.95416011 23.2890656-31.95416011z" fill="#acacac" opacity=".32"/><path d="m77.0808516 22.2774619c1.1741983.1848283 1.8863703.5577922 2.0262165 1.2071006.8153777 3.7858129 1.2134001 8.1637766 1.4283394 13.0734342.4897992 11.1880256.889989 19.5577729-.7808662 23.2898691-3.5230179 7.8691693-14.2332838 14.6201813-19.8004488 14.6201813h-7.1299809c-.9171056 0-1.8968728-.1648453-2.9130639-.4638442.3652695.0457253.7227157.0695157 1.0711186.0695157h7.1299809c5.567165 0 16.2774309-6.751012 19.8004488-14.6201812 1.6708552-3.7320963 1.2706654-12.1018435.7808662-23.2898691-.2285463-5.2204699-.6579071-9.8397818-1.5894466-13.7852994z" fill="#acacac" opacity=".32"/><path d="m54.7747669 25.901208c4.5175489 0 13.393332-5.3379817 18.6722083-4.8567533 4.2301284.3856233 6.8492581 6.5108064 7.857389 18.3755493h1.7045081c-.4845917-4.7930659-.6734706-8.6505052-.5666366-11.572318.5407041-14.7877707-1.4163619-20.12856478-12.3725367-20.91442484s-4.5764434-6.70277806-10.0834897-6.36011119c-3.1943615.19876387-9.1172259 3.42185684-12.0771613 3.70584024-1.8057684.17324981-2.3383609-4.30969342-4.0640606-3.70584024-2.1900533.76633879-3.9159452 5.24332339-5.9304324 6.36011119-5.6196969 3.11543754-6.0444581-3.83866779-7.6138441 0-1.208734 2.95652434.1773282 15.71659094 0 18.53703054-.2717108 4.3216127-.5021076 9.1955278-.6911903 14.6217453 1.7698113-.633803 2.6547169-1.2992569 2.6547169-1.9963617 0-14.3603052 5.0430247-17.0512206 9.9479618-17.0512206 5.6534679 0 8.408718 4.8567533 12.5625676 4.8567533z" fill="#c4c4c4" stroke="#646464" stroke-width="1.232"/><g fill="#fff" stroke="#646464" stroke-width="1.232" transform="translate(26.401216 36.266055)"><path d="m59.0199284 3.08931086c.4495787 2.86658003-.1505901 8.86740234-1.1324298 11.71713464-.1675613.486337-.486269.8645304-.9494673 1.1398996-.3956638.2352203-.8873699.3974082-1.4718589.4954824l-.9685609-15.17300284c1.3299273-.37185004 2.3893975-.44176192 3.1707826-.14755012.362478.13648237.6541439.3572696.8730582.66485953.2416741.33956895.3958457.77631344.4784761 1.30317679z" transform="matrix(.99862953 .05233596 -.05233596 .99862953 .534789 -2.96166)"/><path d="m6.08425353 3.33322537c.44919805 2.81503438-.15060295 8.70790543-1.13160208 11.50636843-.16696422.4762932-.48520835.8459119-.94653643 1.1154658-.39681796.2318607-.89004406.3916274-1.47649992.4881227l-.96724205-14.89248652c1.33110778-.36538693 2.39130521-.43332366 3.17335996-.14390966.36217138.13402831.65394169.35043357.87273138.65257636.24034944.33191623.39361991.75892475.47578914 1.27386289z" transform="matrix(-.99862953 .05233596 .05233596 .99862953 7.294384 -.19101)"/></g><g transform="translate(30.699088 74.376147)"><path d="m7.58682872 3.52399275c8.96986868 8.07125845 8.87978448 8.44490875 15.35190498 12.98493785.5458119.3828732 1.2391142.764708 2.5822229 1.6375031-.6122491.416449-5.7672808 2.334236-7.8857867 4.7376775-3.9203443 4.4476242-5.4541553 4.8967047-7.6238099 4.1551002-2.16965452-.7416044-3.37767078-5.913826-9.45020207-19.45043505 1.14962726-.15007289 1.2591321-.16245394 2.09276961-.25606986 2.22543817-3.86979166 2.51470321-5.98465428 4.93290118-3.80871374z" fill="#dcdcdc"/><path d="m31.9694828 3.52399275c8.9546312 8.05754745 11.3620198 9.56727405 17.6795969 13.85605145.6131504.4162459.2678532.1857265 1.080617.7166336-.4232009.3481899-2.8133528 1.3241668-4.6397354 2.7628244-3.7833461 2.9801747-6.038686 7.5322617-10.1049283 6.1932218-1.3731936-.4522015-4.4484175-7.0288358-9.2256715-19.72990264l1.2571624-.13426906c1.026589-3.89059382 2.344242-5.11211367 3.9529589-3.66455955z" fill="#dcdcdc" transform="matrix(-1 0 0 1 77.489058 0)"/><g fill="#f4f4f4" stroke="#646464" stroke-width="1.232"><path d="m23.226818 17.1701057c-2.4612432.849025-5.3126789 1.8425838-8.2750712 5.3843755-.5769016.7172853-1.4676711 1.9415384-2.5621192 2.0815238-.2768964.0354165-.5654781-.0183692-.8586478-.195498-.3175258-.1918444-.6320471-.5130463-.9492469-.9853945-.209981-.3126865-.3632084-.688695-.8686102-1.8711476-.85438367-1.9989408-2.64454943-6.1874099-7.08531307-15.80729221.19239768-.30742733.3750838-.6017089.54934343-.88242007 1.16677237-1.87952904 1.89248349-3.1510848 2.6998363-3.56835056.2230257-.11526681.45108734-.12820724.70654744-.04219189.37026284.1246703.77437102.41240433 1.25929632.84874934 5.19569158 4.6751821 7.83385018 6.92425797 10.21441228 8.95373589 1.9153078 1.6328391 3.6633711 3.1230731 6.4491031 5.6270116-.41176.1580066-.838976.304926-1.2795305.4568987z"/><path d="m48.0091974 17.053775c-2.1292381.7132978-4.63467 1.5598084-7.4107387 4.6971637-1.1583227 1.3241517-2.2120748 2.635815-3.386153 2.8448589-.3281659.0584297-.6635151.0071346-1.0031027-.1924283-.3713803-.2182462-.7386139-.5944465-1.1131225-1.1521342-.1891086-.2816051-.2965891-.559123-.6598608-1.4357385-.72463-1.7486136-2.3699373-5.7193085-7.1510591-16.06942783.1923134-.30729455.3749235-.60145363.5491138-.8820531 1.1667724-1.87952905 1.8924835-3.1510848 2.6998363-3.56835056.2230257-.11526681.4510874-.12820724.7065475-.04219189.3702628.1246703.774371.41240433 1.2592963.84874934 5.1448045 4.62939294 7.7409022 6.88737623 10.0654841 8.90920894 1.910468 1.6616522 3.6371842 3.1634735 6.4488369 5.6955399-.3239139.1190348-.6591815.2309278-1.0050781.3468036z" transform="matrix(-1 0 0 1 76.73799 0)"/></g></g><g fill="#646464" transform="translate(41.136778 35.036697)"><path d="m23.7220989 9.83273702c-.4892075 0-.8180766-.49913634-.6366719-.95492045.3791943-.94789036 1.3049432-1.6180922 2.3863491-1.6180922 1.0825762 0 2.0083252.67020184 2.3875195 1.6180922.1814046.45578411-.1474645.95492045-.6366719.95492045z"/><path d="m4.4327137 9.83273702c-.56762104 0-.97958518-.59287086-.73498148-1.10489569.4131345-.86821601 1.29675077-1.46811696 2.32080936-1.46811696s1.90767485.59990095 2.32080935 1.46811696c.24460371.51202483-.16736043 1.10489569-.73498148 1.10489569z"/></g><path d="m54.0645547 53.6411485c-.5426747-.1555183-.8564244-.7223414-.7000605-1.2656322.1553419-.5432908.7215222-.8543274 1.2641968-.7008554 1.3888792.4000503 2.9014187.4000503 4.2933638-.0020463.5436966-.1544951 1.1098769.1565414 1.2652188.7008554.1563639.5422676-.1563639 1.110114-.6990385 1.2656322-.8809521.2537404-1.7946077.3826568-2.7164392.3826568-.9197875 0-1.8303771-.1278933-2.7072412-.3806105z" fill="#646464"/><g stroke="#646464" transform="translate(32.541033 36.573394)"><path d="m21.9030455 3.31004488c.4559433.89484752.222649 3.96011038-.7396922 6.35064112-.3436209.8535812-.7858348 1.6291811-1.3497098 2.1881507-.4376676.4338601-.949703.7336556-1.5513901.8026549-4.5894893.5263061-7.753129.7369164-9.90177913.2950627-1.75584578-.3610765-2.76614937-1.1881392-3.28640597-2.7268617-1.0743194-3.17743091-1.731188-5.40880269-.99514288-6.93743633.63464798-1.31804996 2.3377132-2.00050688 5.40352966-2.44094963.1937068-.02782839.39281682-.04727959.59624552-.06564585 3.3107728-.29890821 5.9936996-.16758366 8.0077689.29721701 1.9672585.45399783 3.2906667 1.20500233 3.816576 2.23716708z" stroke-width="1.232" transform="matrix(-1 0 0 1 25.886466 0)"/><path d="m44.5211384 3.31004488c.4544382.89189352.2833152 3.87010982-.5831971 6.19871313-.3103621.83404489-.7145788 1.59218129-1.2374531 2.13811289-.3984887.416061-.8669201.7053565-1.4228983.7705029-4.5176338.5293504-7.8572369.8014799-10.1722868.3768259-.926482-.1699464-1.6777871-.4509907-2.2564097-.8952229-.5361429-.4116188-.914994-.964314-1.1567322-1.6792842-1.0743194-3.17743091-1.731188-5.40880269-.9951428-6.93743633.6346479-1.31804996 2.3377132-2.00050688 5.4035296-2.44094963.1937068-.02782839.3928168-.04727959.5962455-.06564585 3.3107728-.29890821 5.9936997-.16758366 8.007769.29721701 1.9672585.45399783 3.2906667 1.20500233 3.8165759 2.23716708z" fill="#bedef3" fill-opacity=".03" stroke-width="1.232"/><g stroke-linecap="square" stroke-width="1.848"><path d="m22.7173252 4.81833216c.5116515-.34371991 1.023303-.51557987 1.5349544-.51557987.5116515 0 1.023303.17185996 1.5349544.51557987"/><path d="m.306991 1.536697 3.069909 1.844037"/><path d="m47.890578 1.229358-2.762918 2.151376"/></g></g><path d="m63.4148812 7.44921442c-3.3006012-3.19361012-1.905216-5.14982235-3.1066911-4.83976076-1.2200486.31485479-6.7074799.91776459-6.0735045 11.00492684.3773919 6.0046707 2.1428839 7.8064918 7.3291273 7.8064918 5.1862433 0 6.8801768-3.0707833 12.3926591-2.0543132 2.6165767.4824817 4.0208951-.9893238 4.4706786-2.4112117.4977995-1.5736796.018857-3.4527815-1.5412035-5.0155534-2.6615337-2.66615962-3.7843174-2.3455067-7.7196713-2.76307888-3.9353539-.41757219-4.966456-.96800641-5.7513946-1.7275007z" fill="#f4f4f4"/><path d="m56.7933131 96.5045872c-.6778359 0-1.2279636-.5507523-1.2279636-1.2293578s.5501277-1.2293578 1.2279636-1.2293578c.6778358 0 1.2279635.5507523 1.2279635 1.2293578s-.5501277 1.2293578-1.2279635 1.2293578z" fill="#646464"/><path d="m51.2674772 61.7752294c1.5589209.7756912 3.4008662 1.1635369 5.5258359 1.1635369s3.9669149-.3878457 5.5258358-1.1635369" stroke="#646464" stroke-linecap="round" stroke-width="1.232"/></g><g transform="translate(173.75 88.262295)"><g fill="#dcdcdc" stroke="#dcdcdc" stroke-width="1.331" transform="translate(0 1.098361)"><rect height="5.452992" rx="2.726496" width="14.942657" x="5.056804" y=".6655"/><rect height="5.452992" rx="2.726496" width="16.298795" x="5.056804" y="11.649107"/><path d="m17.8398103 21.7932693c-.4809764.4996217-1.1488418.8006328-1.8868759.8006328h-2.7449996c-.735091 0-1.400591-.2979545-1.8823183-.7796817-.4817272-.4817273-.7796817-1.1472273-.7796817-1.8823183 0-.7908792.2927209-1.4892557.7751241-1.9903594.4809764-.4996217 1.1488418-.8006329 1.8868759-.8006329h2.7449996c.735091 0 1.400591.2979545 1.8823183.7796818.4817272.4817272.7796817 1.1472272.7796817 1.8823182 0 .7908793-.292721 1.4892557-.7751241 1.9903595z"/><path d="m19.7268478 11.6102956h-16.3993478c-.735091 0-1.400591-.2979545-1.88231825-.7796818-.48172725-.4817272-.77968175-1.14722723-.77968175-1.88231824 0-.79087923.29272096-1.48925567.77512413-1.99035945.48097641-.49962171 1.14884179-.80063283 1.88687587-.80063283h16.3993478c.735091 0 1.400591.2979545 1.8823183.77968175.4817272.48172725.7796817 1.14722725.7796817 1.88231825 0 .79087923-.2927209 1.48925572-.7751241 1.99035942-.4809764.4996217-1.1488418.8006329-1.8868759.8006329z"/></g><rect fill="#f4f4f4" height="5.452992" rx="2.726496" stroke="#646464" stroke-width="1.331" width="14.942657" x="6.15463" y=".6655"/><path d="m8.5575762 1.35679846h1.35415706c1.12400864 0 2.03519764.91118904 2.03519764 2.03519768 0 1.12400865-.911189 2.03519769-2.03519764 2.03519769h-1.35415706c-1.12400864 0-2.03519768-.91118904-2.03519768-2.03519769 0-1.12400864.91118904-2.03519768 2.03519768-2.03519768z" fill="#fff"/><g fill="#f4f4f4" stroke="#646464" stroke-width="1.331"><rect height="5.452992" rx="2.726496" width="16.298795" x="6.15463" y="11.649107"/><rect height="5.452992" rx="2.726496" width="10.874243" x="11.643761" y="17.14091"/><path d="m20.8246739 11.6102956h-16.39934781c-.73509101 0-1.40059101-.2979545-1.88231825-.7796818-.48172725-.4817272-.77968175-1.14722723-.77968175-1.88231824 0-.79087923.29272096-1.48925567.77512412-1.99035945.48097641-.49962171 1.14884179-.80063283 1.88687588-.80063283h16.39934781c.735091 0 1.400591.2979545 1.8823183.77968175.4817272.48172725.7796817 1.14722725.7796817 1.88231825 0 .79087923-.2927209 1.48925572-.7751241 1.99035942-.4809764.4996217-1.1488418.8006329-1.8868759.8006329z"/></g><rect fill="#fff" height="4.070395" rx="2.035198" width="5.424552" x="2.453964" y="6.783992"/><rect fill="#fff" height="4.070395" rx="2.035198" width="5.424552" x="6.522379" y="12.211186"/><path d="m13.9821286 17.6383799h1.3541571c1.1240086 0 2.0351977.9111891 2.0351977 2.0351977 0 1.1240087-.9111891 2.0351977-2.0351977 2.0351977h-1.3541571c-1.1240086 0-2.0351977-.911189-2.0351977-2.0351977 0-1.1240086.9111891-2.0351977 2.0351977-2.0351977z" fill="#fff"/></g><g fill-rule="nonzero" transform="translate(36 94)"><path d="m5.9752 15.9467497c-.00878918-.0805219.00916802-.1616982.0511-.231.0056-.0126.0168-.0035.021-.0168.01022639-.0253841.01568431-.0524364.0161-.0798-.00397945-.0458021-.01265843-.0910735-.0259-.1351-.02807506-.099081-.03262927-.2033484-.0133-.3045.01331087-.0608809.01331087-.123919 0-.1848-.01034004-.0694622-.03235025-.1366761-.0651-.1988-.01897065-.0354286-.03421875-.0727278-.0455-.1113-.00334087-.0232137-.00334087-.0467862 0-.07.02172156-.032436.04682927-.0624714.0749-.0896.014-.0126.0336.0063.0441-.0154.0203-.0413-.0112-.0903-.0084-.14 0-.0091 0-.0189 0-.0287.00210953-.0767174-.00684923-.1533385-.0266-.2275-.0112-.0308-.0098-.0966.0119-.1064s.0203-.0595.0063-.1155c-.0105-.0406-.0196-.0819-.028-.126-.01476334-.0476262-.02254426-.0971411-.0231-.147.0042-.0133.0133.0056.0182.0056s.0119-.0077.0168-.0301.0147-.0945.0294-.0966c.0252-.0049.028-.168.0518-.21.03172595-.0909383.04108983-.1881786.0273-.2835-.0084-.1568-.0084-.1561.0224-.252.00457869-.013708.00808918-.02775.0105-.042.0084-.0588.0245-.07.0448-.0637.00917879.002402.01882121.002402.028 0 .0252-.0063.0308-.0406.0112-.0945-.02374105-.0541275-.05037962-.1069373-.0798-.1582-.01950718-.0338571-.0345648-.0700895-.0448-.1078-.00720192-.0493529-.00931301-.0993154-.0063-.1491.00110545-.0059769.00474642-.0111817.0099821-.0142694.00523568-.0030878.01155239-.0037554.0173179-.0018306.0126.007.0259.0539.0343-.0091.00630242-.035908-.00039842-.0728867-.0189-.1043-.00285534-.006815-.00519524-.0138347-.007-.021-.0266-.0861-.0252-.1281.007-.1631.03394543-.0534054.04668031-.1175793.0357-.1799 0-.0574 0-.119-.0077-.1708-.0098-.07 0-.07.0161-.07.01352621-.0040703.02356748-.0154685.0259-.0294-.0013737-.0339756-.00606263-.0677359-.014-.1008-.0077-.035-.0196-.063-.028-.0973-.00173332-.0179248-.00173332-.0359751 0-.0539.0049.0063.0098.014.0147.0196.0154.0168.0315.0427.0476.0469s.028-.028.0273-.0434c.00006177-.0408768-.00631641-.0815082-.0189-.1204-.0406-.0504-.0476-.1652-.0525-.2569-.0056-.112-.0245-.1736-.0539-.2023s-.0175-.0553-.0049-.0805c.02680649-.0665742.03432675-.139351.0217-.21-.0049-.0441-.0098-.112.0154-.1218s.0308-.0826.0189-.147c-.0189-.09799996 0-.07489996.0182-.07769996.0154273-.00078929.02851278-.01159904.0322-.0266.00555395-.07021877-.00473248-.14078843-.0301-.2065-.02099179-.02480259-.03995302-.05125468-.0567-.0791-.00710026-.02703714-.01155455-.05470065-.0133-.0826.007 0 .0154-.0119.021 0 .0371.0595.0595-.0322.0889-.0504.00520214-.02009232.00686031-.04093795.0049-.0616-.0042038-.03280558-.01051687-.06530623-.0189-.0973-.014-.0553-.0336-.1001 0-.1435.0190781-.04558706.01544311-.09751543-.0098-.14-.01538197-.02788447-.0280405-.05718662-.0378-.0875-.00660395-.02716972-.01128224-.05477161-.014-.0826.0091-.0098.0175-.0238.0273-.028s.0224.007.0322 0c.01389403-.01060368.02256249-.02666582.0238-.0441.00226908-.03475821-.00056091-.06966138-.0084-.1036-.0448-.07-.0371-.189-.028-.2758.00936918-.05217104.00428565-.10591118-.0147-.1554-.00475229-.02310113-.0080256-.04648197-.0098-.07.00815316-.00022708.01619102.00196506.0231.0063.0056.0049.0112.021.0168.0259s.0077-.0203.0077-.0217c-.0168-.0658-.0105-.1708-.049-.2037-.03632982-.06368279-.05221331-.1369912-.0455-.21 0-.0826.0217-.1127.042-.1169.0378-.0077.0455-.07.0448-.175s.0077-.1246.0434-.1253.0448-.0308.021-.14c-.00589083-.02406863-.01409569-.0475111-.0245-.07-.01548184-.03281226-.01846836-.07014373-.0084-.105.01582763-.06466711.01017629-.13272889-.0161-.1939-.0091-.0238-.0182-.0504-.0266-.0777s-.0105-.0469-.0147-.07c-.00587069-.02938437-.00393992-.05979409.0056-.0882.0119-.0203.0238-.0378.0357-.0602.00915067-.02212326.01229007-.04627245.0091-.07 0-.0168 0-.0336 0-.0504-.00942971-.0540711-.01154869-.10916436-.0063-.1638.00278986-.04487496.00840095-.08952987.0168-.1337.00423169-.01822349.00174618-.03736195-.007-.0539l-.0084-.0203c.0105-.0322.0105-.0931.0287-.1043.0039051-.00349586.00700918-.00779383.0091-.0126.01172825-.02559699.01585863-.05402372.0119-.0819-.0042-.0448-.0091-.0889-.014-.1337.00542045-.02931665.00799907-.05908797.0077-.0889.00370788-.01942464.00370788-.03937536 0-.0588 0-.00886667-.0014-.01726667-.0042-.0252 0-.0392-.0035-.077-.0063-.1043-.00477897-.04253118-.00711614-.08530133-.007-.1281 0-.0889.0966-.21.0777-.2737-.0084-.0301-.0189-.056-.0266-.0875-.021-.0826-.0196-.0847.0077-.1288.01124205-.01936343.01727156-.04131085.0175-.0637-.00058657-.03310207-.00625259-.0659178-.0168-.0973-.0259-.0658-.0539-.1225-.0805-.1848-.0168-.0378.07-.1491.0742-.2135.00839762-.09018733.00439369-.18110012-.0119-.2702-.0294-.07-.0168-.0588-.0455-.133 0 0 .0917-.1918.0819-.252.0073245-.01699229.01598498-.03337698.0259-.049.00646572-.00977662.0109818-.02071028.0133-.0322.0172132-.04585437.00343857-.09757953-.0343-.1288 0 0-.1295-.245.0126-.2926l.0315-.0595.0196-.0812c.01419123-.0642419.03777827-.12603997.07-.1834l.0168-.0168c.01622397-.00814645.03376059-.01336004.0518-.0154.01147493-.00197938.02242913-.00626581.0322-.0126.0193562-.01312528.0409421-.02261358.0637-.028.02989532-.01188553.06320468-.01188553.0931 0 .00809987.00330342.0165568.00565256.0252.007 0 0 .0798.0133.1869.0413 3.8416 1.0199 17.2018-.1015 26.1667-2.6026.2289-.0651.6048-.1533.6846-.1757s.0245.0658-.0595.1358c-.0546.0462-.3332.0938-.35.1071s-.0238.0259-.021.0329c.0574.1323.4088-.0049.5488-.0224s.1309.0448.0504.0959c-.1225.0784-.1533.1827-.0987.2345.0112.0112.0371.0077.0476.0196s.0399.0483.035.0644c-.0123699.03552321-.033567.06731889-.0616.0924-.0649787.05529072-.0803826.14949169-.0364.2226.0319941.04118298.0319941.09881702 0 .14-.0357.0581-.4354.2149-.4998.2422-.0495361.01708911-.0966071.04062461-.14.07-.0105.0091-.0231.0511-.0161.0553.0546.0343.4711-.1491.5299-.1232.0308.014.5257-.1477.308.0091-.0483.0343-.2044.1736-.2002.21-.0004843.00709677-.0016565.01412976-.0035.021-.0084.0588-.007.1169-.0644.161-.014263.01228745-.0199441.03182674-.0144929.04984616.0054513.01801943.0210106.03113306.0396929.03345384.07.021.0462.0518.0119.0882-.07.077-.3045.1813-.3731.2597-.007.0084-.0056.0231-.0084.035.0133 0 .0336.0091.0385.0035.0378-.0413.0868-.0196.1351-.0399.1078-.0469.3822-.147.42-.182.0658-.0658.1743-.0287.1036.0847-.0231.0371-.0441.0119-.0658.0777-.020842.03328712-.046295.06345355-.0756.0896-.0462.0504-.0861.105-.0329.147.0791.063.0735.14.0581.2205-.0224.1141-.0231.1141.0455.196.009961.01015075.0180218.02200488.0238.035.0156218.04119152.0569708.06674747.1008.0623.0212284.00010214.0423719.00268635.063.0077.0588.0126.07.0406.0245.07-.0585478.03687415-.1195959.06962026-.1827.098-.0385906.01403103-.0736922.03623815-.1029.0651-.0203.0266-.0476.0861-.0189.1092.0476.0378.2156-.0441.2373-.0448s.0602-.0315.0777.0182-.3668.161-.3955.1764c-.0059668.00365218-.0113872.00812985-.0161.0133-.0616.0553.0546.07.1344.0889.07.0147.2835-.07.2422-.0238-.0154.0175-.14.0777-.1519.119-.0196.0602-.07.0399-.07.0595-.0009484.04245099-.0075396.0845872-.0196.1253-.0245.049 0 .0511.0343.0581.0224.0042-.0042.0483-.0049.0574-.0037327.02623411-.015466.05067849-.0336.07-.0189.0238-.0462.0406-.0658.0637-.007.0077 0 .0266 0 .0406.0112 0 .28-.0798.2933-.0819.0401461-.01318984.0817553-.02141765.1239-.0245.0224 0 .1064-.0126.0574.0497-.0189.0245-.007.0133-.0959.0532s-.0805.0336-.3346.21c-.0589487.03577763-.1148988.07627704-.1673.1211-.0315.0266.007.0742.07.0448.1813-.0819.567-.1827.5383-.119-.035.077-.1064.1302-.1309.2037-.0301.091-.0917.0623-.1211.0826-.0154495.01676396-.0211208.04033035-.0149899.06228775.006131.0219574.0231906.03917683.0450899.04551225.07.0189.0287.0791 0 .1232-.0441.07.0035.056.0413.0644.0252.0056.2317-.035.2443-.0168.0238.0343-.1519.1204-.21.14-.0653405.01881356-.1246764.05427042-.1722.1029-.0084.0252-.0448.0798-.0308.0812.0551884-.00268635.1101404-.00899997.1645-.0189.1582-.014.1722-.0798.2541-.07.063.0077-.1155.0518-.1603.14-.035.07-.0616.0539-.0791.07-.0329.0364-.0784.0637 0 .1071.0476.0266.1225.0609.07.0854-.0290978.01771528-.0450146.05092093-.0406.0847 0 .0238.0518 0 .1036.0294.0335336.00694453.0674156.01208525.1015.0154.0209942.00358894.0417887.00826185.0623.014.021.0084.0924.0105.0952.0273s-.0987.0763-.1141.0826c-.077.0294-.203.1141-.1981.1904 0 .0224.2415-.1099.2961-.0784s-.0868.0252-.119.1071c-.0385.0966-.1813.0805-.1869.098-.008025.01850706-.0217614.0339606-.0392.0441-.0133.0098-.0161.0343-.0238.0518.0172392.00137609.0345608.00137609.0518 0 .0133 0 .0259-.0126.0392-.014s.0182.0175.0175.0189c-.0392.0434-.14.0931-.1148.1358.0098.0168.098-.0336.1638-.0483.1015-.0224.0882-.0539.14-.0567s.0966-.0455.0784 0c-.0150698.0247012-.0411407.04060446-.07.0427-.0406.0063-.0616.049-.0518.049.0413 0 .1064.0126.1064.0308 0 .0315.0441.0154.0616.0315s.14-.07.1337.0112c-.0349893.0794655-.0994988.14221791-.1799.175-.042.0196-.1631.07-.1645.1295 0 .0833.3563-.0049.4382.0077s.1022.0385.0455.1106c-.0160045.01892725-.0354896.03461036-.0574.0462-.0343.0196-.0427.0378-.0203.0756.0329.0567.0063.0987-.0448.1323-.0372533.0258076-.0721554.05485369-.1043.0868-.0119.0126-.0126.0364-.0182.0553.0191197.00675285.0392238.01030062.0595.0105.0393461-.01211518.0796121-.02101116.1204-.0266.07 0 .07.0168.0469.084-.0113184.02950382-.0172459.06080066-.0175.0924-.0024256.06070159-.0310193.11737842-.0784.1554-.0196.0196-.0434.0357-.0616.056-.049.0553-.0469.0567.0154.0994.0182.0119.0399.0364.0385.0532-.0028992.0277265-.0170748.05304004-.0392.07-.0602.0399.217-.0322.28.1778.0077.07.2373.1085.1939.14-.07.0448-.1498.07-.217.1148-.035396.03231876-.0629314.07230493-.0805.1169.0179341.01670433.0373848.03170241.0581.0448.0105.0091.0252.0168.0294.0287.0272427.05938884.0880628.09604755.1533.0924.0356001.00894651.0697672.02284898.1015.0413-.0265452.0309314-.0566161.05865295-.0896.0826-.0392.021-.0882.0231-.1288.0434s.0441.0315.0238.0637c-.0129631.03208397-.0146901.06760997-.0049.1008 0 .007.0476.0042.07.0091s.0378.0084.0406.0189c.0066841.01864312.005158.03924518-.0042.0567-.0168.021-.1638.042-.1834.0623-.0413.0434-.0364.0833.0203.1043.1351.0504.3045.14.238.2506-.0301.0511-.0042.042.0217.049s.0357 0 .0525.0077c.0497.0133.0525.0294.014.07-.0245.0252-.1729.0791-.1953.1064-.0049.0063-.5068.2394.0098.0812.0084 0 .0644-.0238.1099-.0427.035-.0147.0959-.0224.1365-.0385.0224-.0091.0546.0182.063.0434s-.0084.0595-.0483.07c-.0231714.00412372-.0437899.01719886-.0574.0364-.0266.0623-.0917.1036-.0882.1848 0 .0245-.0476.05809996-.0791.07489996-.0141773.0070386-.0271674.0162497-.0385.0273 0 .0133-.0063.0259-.0084.0392.0050761.007105.0118023.0128703.0196.0168.07.0385.0525.0868.0434.14-.007.0413.1743-.0448.2345-.0287.0222826.0033331.0406292.0192483.0470758.0408368.0064465.0215885-.0001693.0449577-.0169758.0599632-.042.0497-.021.0497.0245.0567.028.0042.0763.0231.077.0364-.0015296.0410399-.0115397.0813187-.0294.1183-.007.0154-.0343.0238-.0539.0308-.0427.0161-.0868.0273-.1295.0441-.0103807.00771-.0163814.0199724-.0161.0329 0 .0077.0224.0217.0273.0196.07-.0378.1204.0154.1757.042.0294.014-.175.0861-.0966.119.0609.0266.0637-.0182.1001-.0168.0833 0-.0224.07-.1554.0756-.0763.0042-.1057.0861-.1225.0994-.0301.0238-.0224.0798.1337.0182.07-.0287.2947.0847.2198.1127-.007 0-.1169.07-.1204.077-.0252.0315-.07.0322-.0238.077.0294.0133.0105.049.0406.0609.0126.0049.0784.0035.0896.0098.0224.0126.1211-.105.1484-.0434.0105.0238-.1547.1456-.1764.161-.0476.0336-.1673.0868-.21.14-.0133.0175.1085-.0231.1232-.0336.0357112-.0280869.0869158-.024451.1183.0084.0035.0147-.1897.07-.2415.14-.0196.0266-.0203.0581-.0504.0812s-.0455.0399.0084.0539c.0175.0049.2835-.0826.3808-.07s.0063.063-.0098.0791-.0203.1302-.0329.14c-.0259.0224-.1022.07-.1148.0994-.0329.0756.5026.14.4158.1806-15.8228 6.7606-29.7129 3.8381-30.0426 3.7002.0044343-.0098689.00612699-.0207504.0049-.0315z" fill="#f5f200"/><g fill="#000"><path d="m29.4854 23.9869497c.1687-.1323.3395-.2632.5096-.3948 1.5722-1.2103 3.1976-2.4626 3.1976-4.2924 0-1.4336-1.0346-2.4346-2.5158-2.4346-1.3006 0-2.7013.8708-2.7013 2.7825-.0004482.0865967.0049306.1731255.0161.259l1.0584-.4095c0-1.05.7826-1.6016 1.5554-1.6016.7511 0 1.5092.4774 1.5092 1.54 0 1.3811-1.4098 2.4619-3.36 3.9585-.28.2135-.5677.4354-.8666.6685l-.0175.014v1.022h5.5419v-1.1116z"/><path d="m3.0716 20.4127497-.0959-.0392c-.8729-.35-1.491-.6608-1.491-1.4427 0-.77.6132-1.1725 1.2187-1.1725.49 0 1.1081.2597 1.3496.8281l1.0276-.3997-.0154-.0385c-.4039-1.0045-1.47-1.4546-2.3499-1.4546-1.1501 0-2.3884.7252-2.3884 2.3184 0 1.5561 1.19 2.0405 2.1497 2.4297l.1169.0483c.98.4032 1.6191.7273 1.6191 1.5239 0 .826-.6937 1.1956-1.3811 1.1956s-1.491-.3626-1.7304-1.3804l-.0112-.0448-1.0899.4144c.3283 1.2712 1.4126 2.0881 2.7846 2.0881.6902 0 1.33-.21 1.8088-.5929.539-.4319.8232-1.05.8232-1.7836 0-1.5631-1.246-2.0594-2.345-2.4976z"/><path d="m14.6097 18.9791497c-1.6996 0-2.933 1.3167-2.933 3.1304s1.2334 3.1311 2.933 3.1311 2.9337-1.3167 2.9337-3.1311-1.2334-3.1304-2.9337-3.1304zm1.8571 3.1304c0 1.3867-.9282 2.1126-1.8452 2.1126-.9289 0-1.869-.7259-1.869-2.1126 0-1.2166.7861-2.1 1.869-2.1 1.0689 0 1.8452.8834 1.8452 2.1z"/><path d="m22.0388 22.5624497c0 1.1004-.8071 1.694-1.5666 1.694-.5782 0-1.1956-.3444-1.1956-1.3118v-3.815h-1.0535v3.815c0 1.6947 1.099 2.296 2.0398 2.296.7574 0 1.4245-.3626 1.7703-.9534l.2009.8141h.8582v-5.9717h-1.0535z"/><path d="m25.837 17.4272497-1.0535.406v1.2964h-.9975v.9639h.9975v3.269c0 1.6338.9296 1.8781 1.484 1.8781.2635184-.0025184.525352-.0423473.7777-.1183l.0329-.0091v-1.0451l-.07.0448c-.1513099.1008131-.3272658.1584163-.5089.1666-.42 0-.6622-.3045-.6622-.8358v-3.3502h1.2411v-.9639h-1.2411z"/><path d="m38.2928 22.0150497v-2.422l-1.0759.4158v2.0062h-2.4157l2.9456-5.0218h-1.1949l-3.1164 5.2983v.812h3.7814v1.995h1.0759v-1.995h1.3923v-1.0885z"/><path d="m10.4132 23.2890497c-.298039.5673736-.88651094.9222907-1.5274.9212-.8953 0-1.799-.6531-1.799-2.1119 0-1.0059.5411-2.0888 1.7297-2.0888.58537354-.0040011 1.1246292.3171256 1.4.8337l1.0038-.3843-.0182-.0385c-.4165-.889-1.33-1.4413-2.38-1.4413-.7222784-.007992-1.4180933.2715428-1.9341.777-.5705.5656-.8722 1.3797-.8722 2.3534 0 2.1511 1.47 3.1311 2.8294 3.1311 1.0591 0 1.9971-.5775 2.5102-1.54l.0203-.0385-.0084-.0035z"/><path d="m12.6959 4.74184974h-1.106l-3.5651 8.25999996h1.3048l.8477-2.0433h3.9312l.847 2.0433h1.3055zm.9716 5.1541h-3.0611l1.5302-3.7002z"/><path d="m20.2223 7.00354974v3.44469996c0 1.0948-.8022 1.6863-1.5582 1.6863-.5733 0-1.1865-.3423-1.1865-1.3034v-3.82759996h-1.0738v3.82759996c0 .7308.2163 1.3342.6265 1.7444.38088.370425.8939861.5732985 1.4252.5635.7525 0 1.4161-.3563 1.7675-.938l.1974.7987h.8764v-5.99619996z"/><path d="m25.34 7.98704974v-.9835h-1.2404v-1.7066l-1.0738.4144v1.2922h-.9982v.98h.9982v3.26409996c0 1.6443.9366 1.89 1.4945 1.89.2644492-.0013841.5274021-.0397903.7812-.1141l.0406-.0119v-1.0724l-.0854.0553c-.1499366.0996988-.3241383.1567982-.504.1652-.4151 0-.6531-.3017-.6531-.8274v-3.34529996z"/><path d="m28.7147 6.85444974c-.8666 0-1.61.3206-2.1525.9268-.5117.5726-.7931 1.3594-.7931 2.2162 0 .85679996.28 1.64989996.7931 2.22109996.5404.6034 1.2852.9226 2.1525.9226 1.7066 0 2.9456-1.3223 2.9456-3.14369996 0-1.8214-1.239-3.143-2.9456-3.143zm.0112 5.24999996c-.924 0-1.8599-.7224-1.8599-2.1042 0-1.21239996.7826-2.09229996 1.8599-2.09229996 1.0647 0 1.8368.8799 1.8368 2.09229996 0 1.379-.924 2.1014-1.8368 2.1014z"/></g></g><path d="m121.681914 118.527597c.194112.152165.383472.31086.583091.455379 1.224429.886541 2.589967 1.472821 4.036534 1.880651 1.313848.370453 2.656343.571184 4.01808.643214 3.236681.171231 6.39063-.333732 9.501705-1.178007 1.595511-.432999 3.159325-.962902 4.699538-1.56326.060902-.023758.122427-.045908.194867-.052209-.037236.024382-.073129.051192-.111905.07285-2.742944 1.532643-5.616016 2.745664-8.665304 3.521683-1.855999.472344-3.738188.749274-5.658366.682133-2.014907-.070454-3.926563-.524258-5.660103-1.598405-1.187586-.735819-2.159459-1.697835-2.938137-2.864029zm22.985991-4.610512c.935424.005344 1.680931.760919 1.676168 1.698881-.004809.939964-.778505 1.70371-1.721959 1.699885-.940242-.003854-1.697352-.770717-1.687715-1.709402.009604-.940522.783529-1.694685 1.733506-1.689364zm-16.237138-.000566c.931097.012404 1.673621.767224 1.665295 1.692815-.008555.952893-.781661 1.715261-1.730819 1.706761-.940078-.0084-1.684274-.772638-1.674407-1.719592.009767-.93829.791035-1.692651 1.739931-1.679984zm7.530156-5.491039c1.052344.005152 2.037.321 3.003268.699525 1.015927.397986 1.98603.891332 2.929058 1.440137.305361.177662.618557.347187.94352.483797.230037.096674.482724.164241.730822.188754 1.191388.117742 2.373501.274796 3.501201.703727.509864.193906.990032.442417 1.381207.834331.276156.276699.447946.593433.421232 1.005332-.020716.319786-.016258.642362-.002721.962837.01439.34082-.136324.586017-.401401.771555-.425231.297636-.9152.426666-1.431849.544014.146322-.983609-.128851-1.801762-.894681-2.42427-.512486-.416624-1.11095-.581587-1.7673-.520944-1.403595.129653-2.601408 1.562997-2.060371 3.225687h-11.525233c.263045-.968317.082961-1.812099-.606101-2.517958-.439261-.449932-.986689-.680558-1.613801-.716983-1.337382-.07774-2.668439 1.041068-2.556534 2.649252-.566735-.123813-1.112196-.291269-1.625634-.554121-.327257-.16749-.629668-.368353-.858722-.664512-.126229-.163158-.191186-.34059-.188737-.55202.006392-.531314-.00767-1.062923-.000197-1.594238.009834-.699394.3582-1.241012.836434-1.712438.045725-.045088.141733-.051717.215123-.054145 1.210695-.040199 2.388316-.249299 3.500316-.740283.499507-.220552.964957-.517367 1.460399-.748355.429689-.200371.870391-.389158 1.324009-.522257.371934-.109111.769336-.174053 1.156643-.179927 1.376421-.020903 2.753334-.01329 4.13005-.006497zm-4.648076.924902c-1.246915.275977-2.355932.809588-3.251169 1.74276-.028091.029304-.050085.064515-.0945.122565h12.876251c-.042873-.039575-.056968-.056278-.074373-.068125-.833156-.566426-1.68883-1.094524-2.620452-1.485421-.54592-.229085-1.100461-.423877-1.707808-.425189-.818012-.001772-1.636024-.022545-2.453938-.039609-.8955-.018672-1.790836-.04243-2.674011.153019zm13.503022-5.72481c2.014612.672781 3.637427 1.879961 4.898305 3.583868.097614.131852.190671.267051.285826.400676-.857182-.737461-1.812633-1.296044-2.83505-1.746173-1.214202-.534596-2.482881-.8828-3.789846-1.096166-1.544966-.252219-3.099996-.311975-4.661056-.227115-2.197843.119481-4.353041.504143-6.478279 1.066468-1.805717.477759-3.572428 1.073982-5.30718 1.766059-.039531.015784-.080077.029074-.135341.013158.353283-.196892.703288-.399888 1.060341-.589627 2.083414-1.106961 4.243102-2.032683 6.500601-2.722758 1.764187-.539289 3.560037-.922933 5.405121-1.031388 1.717544-.100973 3.411323.033603 5.056558.582998z" fill="#cd1719"/></g></svg>