<svg width="18" height="14" xmlns="http://www.w3.org/2000/svg">
    <path id="svg_3" fill="#CD1719 " d="m0,7c0,-0.314 0.108,-0.582 0.325,-0.8l1.58,-1.604c0.216,-0.22 0.48,-0.33 0.788,-0.33c0.31,0 0.575,0.11 0.79,0.33l3.415,3.476l7.618,-7.742c0.216,-0.218 0.48,-0.33 0.79,-0.33c0.31,0 0.573,0.112 0.79,0.33l1.577,1.603c0.22,0.22 0.327,0.49 0.327,0.802c0,0.314 -0.108,0.58 -0.325,0.8l-9.988,10.135c-0.216,0.22 -0.48,0.33 -0.79,0.33c-0.31,0 -0.572,-0.11 -0.788,-0.33l-5.789,-5.87c-0.212,-0.22 -0.32,-0.487 -0.32,-0.8z"/>
</svg>