<svg xmlns="http://www.w3.org/2000/svg" width="24" height="24" viewBox="0 0 24 24">
 
    <g fill="none" fill-rule="evenodd"   transform="translate(-24 -12)">
        <g fill-rule="nonzero">
            <path fill="#ffda25" d="M20.317 3v2.643c0 .302.249.51.66.51.418 0 .667-.208.667-.51V3h1.11v2.69c0 .931-.7 1.432-1.777 1.432-1.087 0-1.779-.5-1.779-1.432V3h1.119zm-1.6.002v.902h-1.851v.708h1.698v.901h-1.698v.708h1.842v.901h-2.96v-4.12h2.968z" transform="translate(24 12)"/>
            <path fill="#ffda25" d="M6.913 3L1 20.916h5.249l1.032-3.43h5.914l1.032 3.43h5.248L13.563 3h-6.65zm3.255 4.934h.14l1.785 5.913h-3.71l1.785-5.913z" transform="translate(24 12)"/>
        </g>
    </g>
</svg>
