<svg width="571" height="155" viewBox="0 0 571 155" xmlns="http://www.w3.org/2000/svg">
    <desc>Created with Sketch Beta.</desc>
    <defs>
        <filter x="-50%" y="-50%" width="200%" height="200%" filterUnits="objectBoundingBox" id="a">
            <feMorphology radius="1" in="SourceAlpha" operator="dilate" result="shadowSpreadOuter1"/>
            <feOffset in="shadowSpreadOuter1" result="shadowOffsetOuter1"/>
            <feGaussianBlur in="shadowOffsetOuter1" result="shadowBlurOuter1"/>
            <feColorMatrix values="0 0 0 0 1 0 0 0 0 1 0 0 0 0 1 0 0 0 0.7 0" in="shadowBlurOuter1"
                           result="shadowMatrixOuter1"/>
            <feMerge>
                <feMergeNode in="shadowMatrixOuter1"/>
                <feMergeNode in="SourceGraphic"/>
            </feMerge>
        </filter>
    </defs>
    <g fill="none" fill-rule="evenodd">
        <g>
            <path d="M40 123c0-1.657 1.35-3 3-3h29c1.657 0 3 1.35 3 3v29c0 1.657-1.35 3-3 3H43c-1.657 0-3-1.35-3-3v-29zm6.786 9.615c.622.3 9.237 4.435 9.56 4.59.32.153.718.2 1.11.16.394-.04.775-.172 1.056-.39.282-.217 7.846-6.05 8.392-6.47.547-.422.98-1.61-.093-1.498l-20.243 2.124c-1.073.115-.403 1.187.22 1.486zm20.655.61c-.62.467-8.257 6.21-8.64 6.497-.38.286-.66.348-1.053.39-.393.04-.68.04-1.112-.163-.433-.204-9.1-4.238-9.805-4.564-.498-.23-.46.096-.433.348l1.06 10.07c.06.575.807 1.246 1.326 1.192l19.165-2.01c.52-.055 1.108-.866 1.048-1.44l-1.06-10.07c-.027-.253-.057-.58-.495-.252z"
                  fill="#CD1719"/>
            <g id="Indicator" transform="translate(280.000000, 120.000000)">
                <path d="M12.5 25C19.404 25 25 19.404 25 12.5c0-4.448-2.323-8.353-5.822-10.57C17.246.71 14.956 0 12.5 0 5.596 0 0 5.596 0 12.5S5.596 25 12.5 25z"
                      id="Oval-5" fill="#CD1719"/>
                <g transform="translate(8.000000, 8.000000)" stroke="#fff" stroke-width="3" stroke-linecap="round">
                    <path d="M.146.072L8.714 8.64m0-8.568L.146 8.64"/>
                </g>
            </g>
            <g transform="translate(320.000000, 120.000000)">
                <path d="M12.5 25C19.404 25 25 19.404 25 12.5c0-4.448-2.323-8.353-5.822-10.57C17.246.71 14.956 0 12.5 0 5.596 0 0 5.596 0 12.5S5.596 25 12.5 25z"
                      fill="#F5B222"/>
                <path d="M6.372 12.5h15.466" stroke="#fff" stroke-width="4" stroke-linecap="round"
                      stroke-dasharray="0.1,6.1"/>
            </g>
            <g transform="translate(360.000000, 120.000000)">
                <path d="M12.5 25C19.404 25 25 19.404 25 12.5c0-4.448-2.323-8.353-5.822-10.57C17.246.71 14.956 0 12.5 0 5.596 0 0 5.596 0 12.5S5.596 25 12.5 25z"
                      fill="#659100"/>
                <path d="M19.895 7.846c.085.072.096.198.024.282l-8.74 10.418c-.046.052-.11.077-.175.07-.04-.002-.08-.018-.114-.046l-5.82-4.883c-.084-.072-.096-.198-.024-.284l1.8-2.143c.07-.086.197-.096.283-.024l3.523 2.957 6.814-8.12c.072-.086.198-.098.282-.026l2.144 1.8z"
                      fill="#fff"/>
            </g>
            <path d="M291.25 10.462h-9.75V3.538h1.946s.517-.69 1.628-1.538h-4.324c-.414 0-.75.345-.75.77v8.46c0 .426.336.77.75.77H292c.415 0 .75-.344.75-.77V8.35l-1.5 1.264v.848zm-1.23-5.347v2.73l4.98-4L290.02 0v2.408c-6.045 0-6.045 6.13-6.045 6.13 1.71-2.883 2.765-3.423 6.046-3.423zM240.462.935c.38.228 5.638 3.358 5.834 3.474.196.115.45.17.704.17.256 0 .51-.055.705-.173.196-.116 5.454-3.246 5.833-3.473.38-.225.74-.935.042-.935h-13.16c-.697 0-.338.71.042.935zM253.7 2.66c-.433.25-5.73 3.32-5.995 3.474-.265.153-.45.173-.705.173-.255 0-.44-.02-.704-.173-.264-.154-5.563-3.225-5.994-3.473-.304-.174-.302.03-.302.19v6.32c0 .362.435.828.77.828h12.46c.336 0 .77-.466.77-.827V2.85c0-.16.003-.365-.3-.19z"
                  id="Shape-2" fill="#000"/>
            <path d="M160.462 120.936c.38.227 5.638 3.357 5.834 3.473.196.115.45.17.704.17.256 0 .51-.055.705-.173.196-.116 5.454-3.246 5.833-3.473.38-.225.74-.935.042-.935h-13.16c-.697 0-.338.71.042.935zm13.237 1.725c-.434.25-5.73 3.32-5.996 3.475-.265.153-.45.173-.705.173-.256 0-.44-.02-.705-.173-.264-.154-5.563-3.225-5.994-3.473-.303-.175-.3.03-.3.19v6.322c0 .362.434.828.77.828h12.46c.335 0 .77-.466.77-.827v-6.323c0-.16.002-.365-.3-.19z"
                  fill="#fff"/>
            <path d="M212 8.625L208.625 0h-5.25L200 3.375v5.25L203.375 12h5.25L212 8.625v-5.25L208.625 0 212 8.625zm-5.25 1.125h-1.5v-1.5h1.5v1.5zm0-3h-1.5v-4.5h1.5v4.5zM169.365 0c-1.294 0-2.42.715-2.99 1.767C165.805.715 164.682 0 163.388 0 161.518 0 160 1.495 160 3.34c0 4.517 6.376 7.66 6.376 7.66s6.376-3.143 6.376-7.66c0-1.845-1.516-3.34-3.387-3.34z"
                  id="Shape" fill="#000"/>
            <path d="M169.365 40c-1.294 0-2.42.715-2.99 1.767-.57-1.052-1.694-1.767-2.988-1.767-1.87 0-3.387 1.495-3.387 3.34 0 4.517 6.376 7.66 6.376 7.66s6.376-3.143 6.376-7.66c0-1.845-1.516-3.34-3.387-3.34z"
                  fill="#fff"/>
            <path d="M120.002 8.627V5.973c0-.43.153-.794.46-1.096.305-.302.675-.453 1.11-.453h.195l.736-2.896c.108-.433.35-.796.73-1.09.377-.292.795-.438 1.253-.438h4.932c.458 0 .876.146 1.254.44.38.292.622.655.73 1.088l.735 2.896h.196c.434 0 .805.15 1.11.453.306.302.46.667.46 1.096v2.654c0 .064-.022.117-.064.16-.044.04-.098.06-.163.06h-.897v.886c0 .37-.13.682-.39.94-.263.258-.58.388-.954.388s-.692-.13-.954-.386c-.26-.258-.392-.57-.392-.94V8.85h-6.502v.884c0 .37-.13.682-.392.94-.262.258-.58.388-.954.388-.373 0-.69-.13-.953-.387-.263-.258-.394-.57-.394-.94V8.85h-.673c-.065 0-.12-.02-.16-.062-.043-.042-.064-.095-.064-.16zm1.12-1.99c0 .304.11.564.33.78.22.217.483.325.792.325.308 0 .572-.108.79-.324.22-.217.33-.477.33-.782 0-.304-.11-.564-.33-.78-.218-.217-.482-.326-.79-.326-.31 0-.573.11-.792.325-.22.217-.33.477-.33.78zm2.495-2.213h6.67l-.623-2.468c-.01-.037-.042-.077-.098-.12-.056-.045-.105-.067-.147-.067h-4.935c-.042 0-.09.02-.147.064-.057.044-.09.084-.1.12l-.623 2.47zm6.7 2.212c0 .305.108.565.328.782.22.216.483.324.792.324.308 0 .572-.108.792-.324.217-.217.327-.477.327-.782 0-.304-.11-.564-.33-.78-.22-.217-.483-.326-.79-.326-.31 0-.574.11-.793.325-.22.217-.33.477-.33.78zM52.4 12.642c-.467.477-1.225.477-1.693 0l-2.113-2.154c-.87.568-1.896.906-3.005.906-3.09 0-5.59-2.55-5.59-5.697C40 2.55 42.5 0 45.59 0c3.085 0 5.587 2.55 5.587 5.697 0 1.13-.332 2.178-.89 3.064l2.114 2.157c.47.477.47 1.25 0 1.726zM45.59 1.628c-2.204 0-3.992 1.82-3.992 4.07 0 2.247 1.788 4.07 3.992 4.07 2.205 0 3.992-1.823 3.992-4.07 0-2.25-1.787-4.07-3.992-4.07zM80 6.5c0-1.18.29-2.267.872-3.263.58-.996 1.37-1.784 2.365-2.365C84.233.292 85.32 0 86.5 0c1.18 0 2.267.29 3.263.872.996.58 1.784 1.37 2.365 2.365.58.996.872 2.084.872 3.263 0 1.18-.29 2.267-.872 3.263-.58.996-1.37 1.784-2.365 2.365-.996.58-2.084.872-3.263.872-1.18 0-2.267-.29-3.263-.872-.996-.58-1.784-1.37-2.365-2.365C80.292 8.767 80 7.68 80 6.5zm1.913-2.87c.04.04.073.063.1.068.024.006.038.03.044.077.005.045.012.076.02.093.01.016.042.008.098-.026.05.045.06.1.026.16.007-.005.13.07.374.23.107.095.167.154.178.177.018.06-.01.11-.084.15-.006-.01-.03-.037-.076-.076-.045-.04-.07-.05-.077-.034-.017.03-.015.08.005.157s.05.112.09.106c-.04 0-.068.045-.082.136-.014.09-.02.19-.02.3 0 .11-.004.175-.01.197l.017.01c-.017.066 0 .164.047.29.048.128.11.183.182.166-.073.017-.017.138.17.364.033.045.056.07.067.076.017.01.05.033.1.064.05.03.094.06.128.084.034.027.063.057.085.09.023.03.05.09.085.19.034.1.074.166.12.2-.013.034.014.09.08.17.064.08.094.143.088.194-.005 0-.013.003-.02.01-.01.004-.017.007-.022.007.017.04.06.08.13.12.07.04.115.076.132.11.006.017.01.045.017.084.006.04.014.07.026.093.01.023.033.028.067.017.01-.112-.057-.287-.204-.524-.084-.14-.132-.222-.144-.245-.018-.028-.033-.072-.047-.13-.014-.06-.027-.1-.038-.124.01 0 .028.006.05.015.023.008.047.018.073.03.025.01.046.022.063.033.018.012.023.02.018.026-.017.04-.01.09.017.148.03.06.062.113.102.158.04.045.087.098.144.16.058.063.09.1.1.11.036.034.075.09.12.165.046.077.046.115 0 .115.05 0 .108.028.17.084.06.057.11.113.144.17.028.045.05.118.068.22.018.1.032.17.043.203.01.04.035.077.072.114.037.037.072.064.106.08l.136.068s.036.02.11.06c.027.01.08.04.156.09.076.047.136.08.182.096.056.022.1.034.135.034.034 0 .075-.007.123-.022.048-.014.086-.024.114-.03.085-.01.167.03.246.127.08.097.138.156.177.178.203.108.36.14.466.094-.013.006-.01.027.003.064.014.036.037.08.068.13.03.052.057.093.077.124.02.032.035.056.047.073.03.034.08.076.153.127.073.05.124.093.152.127.033-.024.052-.05.06-.078-.02.046 0 .102.057.17.057.067.108.096.152.085.08-.018.12-.108.12-.27-.177.084-.315.033-.417-.153 0-.006-.008-.02-.022-.047-.013-.025-.025-.05-.033-.072-.008-.023-.015-.047-.02-.072-.007-.024-.007-.045 0-.062.005-.016.02-.025.04-.025.052 0 .08-.01.086-.03.006-.02 0-.055-.017-.105-.017-.05-.028-.088-.034-.11-.006-.046-.037-.102-.094-.17-.056-.067-.09-.11-.1-.127-.03.05-.074.074-.137.068-.062-.005-.107-.03-.135-.075 0 .006-.004.02-.013.046-.008.027-.012.045-.012.056-.073 0-.115-.003-.127-.008.007-.017.014-.067.023-.15.008-.08.018-.144.03-.19.005-.022.02-.055.046-.1.024-.046.045-.087.062-.123.017-.037.03-.072.034-.106.005-.035-.007-.06-.038-.08-.03-.02-.08-.03-.148-.023-.107.006-.18.062-.22.17-.006.016-.014.046-.026.088-.01.043-.025.075-.042.098-.017.022-.042.042-.076.06-.04.016-.108.022-.204.016-.096-.007-.163-.02-.203-.043-.073-.046-.137-.127-.19-.246-.054-.117-.08-.222-.08-.312 0-.057.006-.13.02-.224.014-.092.023-.163.026-.21.003-.05-.013-.118-.047-.208.016-.012.042-.04.076-.08.034-.043.062-.073.085-.09.01-.006.025-.01.038-.013.014-.004.027-.004.038 0 .012.002.023-.002.034-.014.01-.01.02-.03.025-.05-.006-.007-.017-.016-.034-.027-.015-.017-.026-.026-.032-.026.04.018.12.013.242-.012.12-.026.197-.022.23.012.086.062.148.057.188-.017 0-.005-.008-.032-.022-.08-.014-.048-.015-.086-.004-.114.028.152.11.177.245.076.018.016.06.03.132.04.07.012.12.026.146.043.017.012.037.027.06.047.022.02.037.032.046.038.008.005.022.004.042-.005.02-.008.044-.026.072-.055.057.08.09.147.1.204.063.225.117.35.162.372.04.017.07.023.092.017.022-.004.035-.03.038-.08.003-.047.003-.087 0-.118-.003-.03-.007-.066-.013-.105l-.005-.07v-.153l-.01-.068c-.085-.02-.137-.053-.156-.104-.02-.05-.016-.102.013-.156.028-.053.07-.105.127-.155.005-.006.028-.016.067-.03.04-.014.086-.033.134-.055.048-.023.083-.045.105-.068.12-.107.16-.206.126-.296.04 0 .07-.026.093-.077-.006 0-.02-.01-.043-.027-.022-.017-.044-.03-.063-.042-.02-.01-.033-.016-.038-.016.05-.028.056-.074.017-.136.028-.018.05-.05.063-.094.014-.045.036-.073.064-.085.05.07.11.074.176.017.04-.045.043-.09.01-.135.027-.04.085-.07.172-.09.088-.02.14-.046.157-.08.04.012.062.006.068-.017.005-.023.008-.056.008-.1 0-.046.01-.08.028-.103.022-.028.065-.053.127-.076s.1-.037.11-.042L89 4.88c.016-.022.016-.033 0-.033.1.012.19-.02.26-.093.058-.062.04-.118-.05-.17.018-.033.01-.06-.025-.08-.034-.02-.076-.035-.127-.046.017-.007.05-.008.097-.005.048.003.078-.002.09-.013.084-.057.064-.102-.06-.136-.096-.028-.217.006-.364.102-.01.006-.037.032-.08.08-.042.05-.08.075-.114.08.012 0 .024-.013.038-.04.014-.03.028-.06.042-.094.015-.034.025-.054.03-.06.034-.04.096-.08.187-.126.078-.034.225-.068.44-.102.192-.045.336-.014.432.093-.012-.012.015-.05.08-.11.065-.063.106-.097.123-.102.017-.012.06-.024.127-.038.068-.014.11-.035.127-.064l.018-.186c-.068.006-.117-.014-.148-.06-.032-.044-.05-.104-.055-.177 0 .01-.017.034-.05.068 0-.04-.014-.06-.04-.067-.024-.005-.057-.002-.096.01-.04.01-.065.014-.076.008-.057-.017-.1-.038-.127-.063-.03-.026-.05-.072-.068-.14-.018-.068-.03-.11-.035-.127-.01-.028-.038-.058-.08-.09-.043-.03-.07-.06-.08-.088-.007-.012-.014-.027-.022-.047-.01-.02-.017-.038-.026-.055-.008-.017-.02-.032-.034-.046-.013-.014-.03-.02-.046-.022-.017 0-.037.014-.06.043-.022.028-.043.056-.063.084-.02.028-.032.042-.038.042-.017-.013-.034-.017-.05-.014-.017.002-.03.004-.038.007-.01.003-.02.012-.038.026-.018.013-.032.023-.043.03-.017.01-.04.02-.072.024-.03.006-.055.012-.073.017.085-.027.082-.06-.008-.09-.057-.024-.102-.03-.136-.027.05-.022.072-.056.064-.1-.01-.047-.033-.086-.072-.12h.042c-.006-.022-.03-.046-.072-.072-.042-.025-.092-.05-.148-.07-.057-.023-.094-.04-.11-.05-.045-.03-.14-.057-.288-.08-.147-.028-.24-.03-.28-.007-.027.034-.04.064-.037.09.003.025.014.065.034.118.02.054.03.09.03.107.007.034-.01.07-.045.11-.037.04-.055.074-.055.102 0 .04.038.082.117.13.08.05.108.11.085.182-.017.046-.062.09-.135.136-.074.046-.12.08-.136.102-.026.046-.03.098-.01.157.02.058.05.104.09.14.01.01.014.02.01.032-.002.01-.01.023-.03.037-.016.014-.03.026-.045.034-.014.01-.032.02-.055.03l-.027.018c-.06.03-.12.012-.173-.05-.054-.062-.092-.135-.114-.22-.04-.14-.085-.226-.136-.254-.13-.045-.212-.042-.245.01-.028-.075-.144-.148-.347-.22-.14-.052-.305-.063-.49-.035.033-.006.033-.048 0-.127-.04-.085-.094-.12-.162-.1.017-.035.028-.085.034-.15.005-.065.008-.103.008-.114.017-.074.05-.14.102-.196.005-.006.025-.03.06-.072.033-.042.06-.08.08-.114.02-.035.02-.052.004-.052.197.023.338-.008.423-.093.028-.028.06-.076.097-.144.037-.068.066-.116.09-.144.05-.034.09-.05.118-.046.028.004.07.02.122.047.054.028.095.042.123.042.08.004.123-.027.132-.095.006-.067-.015-.124-.066-.17.068.007.076-.04.026-.143-.027-.04-.05-.065-.067-.076-.068-.023-.144-.01-.23.042-.044.02-.038.044.018.067-.003-.006-.03.024-.08.09-.046.064-.093.113-.14.147-.043.034-.09.02-.133-.042-.006-.006-.022-.044-.047-.114-.026-.07-.053-.11-.082-.114-.045 0-.09.042-.135.127.017-.046-.014-.088-.093-.127-.08-.04-.147-.063-.203-.068.107-.068.084-.144-.068-.23-.04-.02-.1-.035-.176-.04-.076-.007-.13.005-.164.033-.028.038-.043.07-.046.096-.003.025.01.048.042.068.03.02.06.035.09.046.028.01.06.022.097.034.036.01.06.02.072.025.08.056.1.096.067.118-.01.006-.035.016-.072.03-.036.014-.07.027-.097.038-.028.01-.045.022-.05.033-.018.022-.018.06 0 .118.016.056.01.096-.018.118-.028-.028-.053-.077-.076-.148-.025-.07-.044-.117-.06-.14.04.05-.03.068-.213.05l-.084-.008c-.023 0-.068.006-.136.017-.068.012-.126.015-.173.01-.048-.007-.086-.03-.115-.07-.023-.044-.023-.1 0-.168.005-.023.016-.03.033-.018-.022-.017-.053-.044-.093-.08-.038-.037-.067-.06-.084-.073-.26.084-.524.2-.796.346.034.006.068.003.102-.008.028-.012.065-.03.11-.055.045-.026.073-.04.085-.047.19-.08.31-.098.355-.06l.042-.04c.08.09.136.16.17.21-.04-.022-.125-.025-.255-.008-.114.034-.176.067-.188.1.04.07.054.12.042.153-.022-.016-.054-.044-.097-.084-.042-.04-.083-.07-.123-.09-.04-.024-.08-.038-.127-.044-.09 0-.152.004-.186.01-.823.45-1.486 1.078-1.99 1.88zm5.51 8.067c0 .033.006.08.017.135 1.162-.203 2.153-.736 2.97-1.6-.016-.017-.052-.03-.105-.037-.053-.01-.09-.02-.106-.03-.103-.04-.17-.062-.205-.068.006-.04 0-.076-.02-.11s-.044-.06-.07-.076c-.024-.015-.06-.04-.105-.066-.044-.028-.075-.048-.092-.06-.01-.01-.03-.028-.06-.05-.027-.022-.047-.038-.058-.047-.012-.008-.033-.02-.064-.037-.03-.018-.055-.024-.072-.018-.017.005-.045.008-.085.008l-.027.01c-.017.004-.033.01-.047.02-.014.008-.03.017-.046.025-.016.01-.027.018-.033.026-.005.01-.005.018 0 .023-.118-.096-.22-.158-.305-.186-.028-.006-.06-.02-.092-.046-.034-.025-.064-.044-.09-.06-.025-.013-.053-.017-.084-.01-.03.004-.064.024-.098.06-.028.026-.045.07-.05.125-.006.056-.012.093-.017.11-.04-.028-.04-.078 0-.148.04-.07.047-.123.02-.157-.018-.035-.048-.047-.09-.04-.043.01-.076.022-.1.04-.027.016-.06.04-.1.07-.04.032-.064.05-.075.056-.012.006-.036.02-.072.047-.037.025-.06.046-.072.063-.016.023-.033.056-.05.102-.017.045-.03.076-.042.092-.012-.022-.044-.04-.097-.055-.053-.014-.08-.03-.08-.046.01.055.023.153.034.294.01.14.025.248.042.322.04.175.006.31-.102.406-.152.14-.234.254-.245.34-.023.123.01.196.1.22 0 .038-.02.096-.067.172-.046.076-.065.137-.06.182zM1.84 1.833V0h12.874v9.167h-1.84V11H0V1.833h1.84zm11.035 6.11h.613v-6.72H3.065v.61h9.81v6.11zM1.225 9.78H11.65V3.055H1.225v6.723z"
                  id="Shape" fill="#000"/>
            <path d="M324.853 0C322.173 0 320 2.1 320 4.688 320 9.375 324.853 15 324.853 15s4.853-5.625 4.853-10.313c0-2.588-2.173-4.687-4.853-4.687zm0 7.5c-1.608 0-2.912-1.26-2.912-2.813 0-1.553 1.306-2.812 2.914-2.812s2.912 1.26 2.912 2.813c0 1.553-1.304 2.812-2.912 2.812z"
                  fill="#BFBFBF"/>
            <path d="M367 6.933l3.5-3.466h-2.625V0h-1.75v3.467H363.5l3.5 3.466zm3.182-1.418l-.98.972 3.555 1.313L367 9.926 361.243 7.8l3.556-1.313-.983-.972L360 6.933V10.4l7 2.6 7-2.6V6.933l-3.818-1.418z"
                  fill="#fff"/>
            <path d="M400 13V9.43l7.14-7.14 3.57 3.57-7.14 7.14H400zm1.1-2.197h1.097v1.1h.918l.78-.782-2.015-2.014-.78.78v.92-.002zm1.457-2.197c0 .126.063.19.19.19.056 0 .105-.02.145-.06l4.65-4.652c.04-.04.06-.09.06-.146 0-.126-.062-.19-.188-.19-.057 0-.106.02-.146.06l-4.65 4.652c-.04.04-.06.09-.06.146zm5.132-6.864L409.11.326c.206-.217.463-.326.772-.326.303 0 .564.11.78.326l2.017 2.008c.213.223.32.484.32.78 0 .304-.107.562-.32.774l-1.423 1.424-3.57-3.57zm43.21 7.095L447.56 5.5l3.337-3.337c.036-.036.06-.078.078-.123.046-.122.02-.265-.08-.363L449.325.1c-.1-.098-.24-.124-.364-.078-.044.016-.086.042-.122.078L445.5 3.437 442.163.1c-.036-.036-.078-.062-.123-.078-.122-.046-.265-.02-.363.08L440.1 1.676c-.098.098-.124.24-.078.363.017.044.042.086.08.122l3.336 3.337-3.337 3.336c-.034.036-.06.078-.077.123-.046.12-.02.264.08.362l1.575 1.576c.098.098.24.124.363.078.046-.017.088-.042.124-.08L445.5 7.56l3.338 3.337c.036.036.078.06.123.078.123.046.266.02.364-.08L450.9 9.32c.098-.098.124-.24.078-.363-.017-.045-.042-.087-.08-.123z"
                  id="Shape" fill="#fff"/>
            <path d="M130.9 128.837l-3.338-3.337 3.337-3.337c.035-.036.06-.078.077-.123.046-.122.02-.265-.08-.363l-1.575-1.576c-.098-.097-.24-.123-.363-.077-.046.016-.088.042-.124.078l-3.337 3.338-3.338-3.337c-.036-.035-.078-.06-.123-.077-.123-.046-.266-.02-.364.08l-1.576 1.575c-.098.098-.124.24-.078.363.017.046.042.088.08.124l3.336 3.337-3.337 3.338c-.034.036-.06.078-.077.123-.046.123-.02.266.08.364l1.575 1.576c.098.098.24.124.363.078.046-.017.088-.042.124-.08l3.337-3.336 3.338 3.337c.036.035.078.06.123.077.123.046.266.02.364-.08l1.576-1.575c.098-.098.124-.24.078-.363-.017-.046-.042-.088-.08-.124z"
                  fill="#000"/>
            <path d="M480.325 6.2l1.58-1.604c.217-.22.48-.33.79-.33.31 0 .572.11.79.33l3.413 3.476L494.516.33c.217-.22.48-.33.79-.33.31 0 .572.11.79.33l1.58 1.603c.216.22.324.487.324.8 0 .315-.108.582-.325.802l-9.987 10.135c-.217.22-.48.33-.79.33-.31 0-.573-.11-.79-.33l-5.783-5.87c-.217-.22-.325-.486-.325-.8 0-.314.108-.58.325-.8z"
                  fill="#509500"/>
            <path d="M535.854 12.854L531 8l4.854-4.854c.052-.052.09-.113.114-.178.067-.178.03-.386-.114-.53L533.56.148c-.142-.144-.35-.18-.528-.115-.065.024-.126.062-.178.114L528 5 523.146.146c-.052-.052-.113-.09-.178-.114-.178-.067-.386-.03-.53.114l-2.292 2.293c-.143.14-.18.35-.114.527.024.065.062.126.114.178L525 8l-4.854 4.854c-.052.052-.09.113-.114.178-.067.178-.03.386.114.53l2.293 2.292c.14.143.35.18.527.114.065-.024.126-.062.178-.114L528 11l4.854 4.854c.052.052.113.09.178.114.178.067.386.03.53-.114l2.292-2.293c.143-.14.18-.35.114-.527-.024-.065-.062-.126-.114-.178z"
                  id="Icon" fill="#9E1114"/>
            <path d="M1.007 40C.45 40 0 40.45 0 41.007v11.986C0 53.55.45 54 1.007 54h11.986C13.55 54 14 53.55 14 52.993V41.007C14 40.45 13.55 40 12.993 40H1.007zM6 46v-3h2v3h3v2H8v3H6v-3H3v-2h3zM41.007 40C40.45 40 40 40.45 40 41.007v11.986c0 .556.45 1.007 1.007 1.007h11.986C53.55 54 54 53.55 54 52.993V41.007C54 40.45 53.55 40 52.993 40H41.007zM51 46v2h-8v-2h8z"
                  fill="#373737"/>
            <path d="M570.9 8.837L567.56 5.5l3.337-3.337c.036-.036.06-.078.078-.123.046-.122.02-.265-.08-.363L569.325.1c-.1-.098-.24-.124-.364-.078-.044.016-.086.042-.122.078L565.5 3.437 562.163.1c-.036-.036-.078-.062-.123-.078-.122-.046-.265-.02-.363.08L560.1 1.676c-.098.098-.124.24-.078.363.017.044.042.086.08.122l3.336 3.337-3.337 3.336c-.034.036-.06.078-.077.123-.046.12-.02.264.08.362l1.575 1.576c.098.098.24.124.363.078.046-.017.088-.042.124-.08L565.5 7.56l3.338 3.337c.036.036.078.06.123.078.123.046.266.02.364-.08L570.9 9.32c.098-.098.124-.24.078-.363-.017-.045-.042-.087-.08-.123z"
                  fill="#fff"/>
            <path d="M88.732 49.13c-.346-.054-.353-.97-.353-.97s1.013-.966 1.234-2.268c.595 0 .963-1.383.368-1.87C90.007 43.51 90.746 40 87 40c-3.746 0-3.007 3.51-2.982 4.022-.595.487-.228 1.87.367 1.87.22 1.302 1.237 2.27 1.237 2.27s-.008.914-.353.967C84.153 49.3 80 51.063 80 53h14c0-1.935-4.156-3.7-5.27-3.87h.002z"
                  id="Shape" fill="#000"/>
            <g transform="translate(120.000000, 40.000000)">
                <rect opacity=".4" fill="#000" width="17" height="17" rx="2"/>
                <path d="M7.128 10.72h1.968v-.624c0-1.728 2.784-2.032 2.784-4.672 0-1.888-1.68-3.008-3.488-3.008-1.904 0-3.008 1.152-3.008 1.152l1.12 1.392s.8-.672 1.712-.672c.88 0 1.552.576 1.552 1.328 0 1.648-2.64 2.016-2.64 4.336v.768zm0 3.28h1.968v-1.888H7.128V14z"
                      fill="#fff"/>
            </g>
            <g transform="translate(160.000000, 80.000000)">
                <rect fill="#9E1114" width="17" height="17" rx="2"/>
                <path d="M7.744 10.72H9.52l.16-8.08H7.568l.176 8.08zM7.648 14h1.968v-1.888H7.648V14z" fill="#fff"/>
            </g>
            <path d="M211.89 49.64L208.25 46l3.64-3.64c.04-.04.068-.086.086-.134.05-.134.022-.29-.086-.397l-1.72-1.72c-.107-.11-.263-.137-.396-.087-.048.018-.094.046-.134.085L206 43.75l-3.64-3.64c-.04-.04-.086-.068-.134-.086-.134-.05-.29-.022-.397.086l-1.72 1.72c-.11.107-.137.263-.087.396.018.048.046.094.086.134l3.64 3.64-3.64 3.64c-.04.04-.07.086-.087.134-.05.133-.022.29.086.397l1.72 1.72c.106.11.262.137.395.087.048-.018.094-.046.134-.086l3.64-3.64 3.64 3.64c.04.04.085.07.133.087.134.05.29.022.397-.086l1.72-1.72c.108-.106.136-.262.086-.395-.018-.048-.046-.094-.086-.134z"
                  fill="#9E1114"/>
            <g transform="translate(240.000000, 40.000000)">
                <path d="M0 0l56 56V0H0z" fill="#CD1719"/>
                <path d="M21.527 15.783l1.728 1.73 6.046-6.047 1.678 1.676 1.538-1.538-5.07-5.07-1.538 1.538 1.665 1.665-6.045 6.046zm4.094 4.094l1.74 1.74 7.585-7.584-1.74-1.74-7.583 7.584zm2.897 2.896l1.74 1.74 2.344-2.345.648.647c1.39 1.39 3.415 1.21 4.943-.318 1.528-1.528 1.687-3.532.298-4.922L36.1 15.19l-7.584 7.583zm5.622-2.143l2.163-2.164.36.36c.478.478.393 1.263-.244 1.9-.637.636-1.4.784-1.95.233l-.33-.33zm-.19 7.573l1.737 1.74L38.03 27.6l.647.646c1.39 1.39 3.416 1.21 4.943-.32 1.528-1.526 1.687-3.53.297-4.92L41.53 20.62l-7.583 7.583zm5.62-2.142l2.163-2.162.36.36c.478.478.393 1.263-.243 1.9-.638.635-1.4.784-1.953.232l-.33-.33zm2.25 5.326l1.45 1.453 5.41-5.07-1.792-1.793-5.07 5.41zm-2.378 2.312l1.507 1.507 1.59-1.59-1.506-1.508-1.59 1.59z"
                      fill="#fff"/>
            </g>
            <path d="M332.25 41.857h-10.5v9.286h10.5v-9.286zM334 40v13h-14V40h14zm-2.625 10.214h-8.75v-1.857l2.625-4.643 3.596 4.643 2.53-1.857v3.714zm-2.625-6.035c0-.77.588-1.395 1.313-1.395.724 0 1.312.623 1.312 1.393 0 .768-.588 1.39-1.313 1.39-.724 0-1.312-.622-1.312-1.39z"
                  id="Shape" fill="#000"/>
            <path d="M360 54v-3.845l7.69-7.688 3.843 3.844-7.688 7.69H360zm1.183-2.366h1.183v1.184h.99l.84-.84-2.172-2.173-.84.84v.99zm1.57-2.366c0 .136.068.204.204.204.062 0 .114-.022.157-.065l5.01-5.01c.042-.042.064-.094.064-.156 0-.134-.068-.2-.203-.2-.062 0-.115.02-.158.063l-5.01 5.01c-.042.042-.063.095-.063.156zm5.527-7.392l1.534-1.525c.222-.232.5-.35.832-.35.326 0 .606.118.84.35l2.172 2.165c.228.24.342.52.342.84 0 .327-.114.605-.342.833l-1.534 1.533-3.844-3.843z"
                  fill="#000"/>
            <path d="M420.422 60.422c-.77.77-2.02.77-2.79 0l-3.48-3.48c-1.43.918-3.123 1.464-4.95 1.464-5.08 0-9.202-4.12-9.202-9.203 0-5.083 4.12-9.203 9.203-9.203 5.083 0 9.203 4.12 9.203 9.203 0 1.826-.547 3.518-1.465 4.95l3.483 3.48c.77.77.77 2.02 0 2.79zm-11.22-17.792c-3.63 0-6.573 2.942-6.573 6.573 0 3.63 2.94 6.574 6.57 6.574s6.575-2.943 6.575-6.574c0-3.63-2.943-6.573-6.574-6.573z"
                  fill="#383838"/>
            <path d="M253.614 133.615c-.513.513-1.346.513-1.86 0l-2.32-2.32c-.953.61-2.08.976-3.3.976-3.387 0-6.134-2.745-6.134-6.134 0-3.388 2.747-6.135 6.135-6.135 3.39 0 6.136 2.748 6.136 6.136 0 1.218-.363 2.346-.975 3.3l2.32 2.32c.514.514.514 1.346 0 1.86zm-7.48-11.862c-2.42 0-4.38 1.962-4.38 4.382s1.96 4.383 4.38 4.383c2.422 0 4.383-1.962 4.383-4.383 0-2.42-1.96-4.382-4.382-4.382z"
                  fill="#fff"/>
            <path d="M440 51.375v-3.792c0-.48.16-.89.476-1.235.317-.343.697-.515 1.14-.515h.54v-4.958c0-.243.077-.45.234-.62.157-.17.348-.255.572-.255h5.654c.224 0 .47.06.74.182s.482.268.64.438l1.278 1.385c.157.17.292.4.404.693.112.29.168.56.168.8v2.335h.538c.444 0 .824.17 1.14.515.318.343.476.755.476 1.235v3.792c0 .08-.027.147-.08.205-.053.058-.117.087-.19.087h-1.884v1.458c0 .243-.08.45-.236.62-.157.17-.347.255-.572.255h-8.076c-.225 0-.415-.085-.572-.255-.157-.17-.236-.377-.236-.62v-1.458h-1.885c-.074 0-.138-.03-.19-.087-.054-.058-.08-.126-.08-.205zm3.23 1.46h7.54V50.5h-7.54v2.334zm0-5.834h7.54v-3.5h-1.347c-.224 0-.415-.084-.572-.254-.155-.17-.233-.376-.233-.62v-1.458h-5.385V47zm8.616.585c0 .158.054.295.16.41.107.116.233.174.38.173.145 0 .27-.058.378-.173.106-.115.16-.25.16-.41 0-.16-.054-.295-.16-.41-.107-.115-.233-.173-.38-.173-.145 0-.27.058-.378.174-.106.115-.16.252-.16.41z"
                  id="Shape" fill="#000"/>
            <path d="M480 45.483h3.65V49h1.74v-3.517h3.652v-1.947h-3.65V40h-1.74v3.536H480v1.947z" stroke="#000"
                  stroke-width=".983" fill="#000"/>
            <path d="M6.776 80h-5.58C.538 80 0 80.548 0 81.22v10.56C0 92.453.538 93 1.196 93h5.58c.658 0 1.196-.548 1.196-1.22V81.22c0-.672-.538-1.22-1.196-1.22zm-4.384.61H5.58v.406H2.392v-.407zm1.594 11.578c-.44 0-.797-.364-.797-.813 0-.45.354-.813.795-.813.44 0 .797.364.797.813 0 .45-.357.813-.797.813zm3.19-2.438H.796v-8.125h6.38v8.125zm33.22-9c.325.18 4.832 2.684 5 2.778.168.093.385.138.604.138.22 0 .437-.045.604-.14.168-.092 4.675-2.597 5-2.778.326-.18.634-.748.036-.748H40.36c-.597 0-.29.568.036.75zm11.346 1.378c-.37.2-4.91 2.656-5.138 2.78-.227.12-.384.138-.604.138-.22 0-.377-.016-.603-.14-.227-.122-4.77-2.578-5.138-2.778-.263-.14-.26.025-.26.15v5.06c0 .29.372.662.66.662h10.68c.287 0 .66-.372.66-.66v-5.06c0-.127 0-.292-.26-.152z"
                  id="Shape" fill="#373737"/>
            <g transform="translate(80.000000, 80.000000)" fill="#000">
                <path d="M6.12 13.835c-1.572 0-3.05-.63-4.16-1.776C.85 10.91.24 9.39.24 7.77c0-1.623.612-3.146 1.723-4.292.354-.364.926-.364 1.28 0 .353.365.353.955 0 1.32-.77.794-1.193 1.848-1.193 2.97 0 1.123.424 2.178 1.193 2.97.768.795 1.79 1.23 2.88 1.23 1.087 0 2.11-.436 2.878-1.23.77-.792 1.193-1.847 1.193-2.97 0-1.122-.423-2.177-1.192-2.97-.353-.365-.353-.955 0-1.32.355-.364.927-.364 1.28 0C11.388 4.626 12 6.148 12 7.768s-.613 3.145-1.723 4.29c-1.11 1.146-2.587 1.777-4.158 1.777zm0-7.068c-.5 0-.906-.418-.906-.933V1.167c0-.515.405-.933.905-.933s.902.418.902.933v4.667c0 .515-.404.933-.904.933z"
                      id="Shape"/>
            </g>
            <g transform="translate(120.000000, 80.000000)">
                <circle fill="#999" cx="7.5" cy="7.5" r="7.5"/>
                <path d="M6.51 9.39h1.566v-.495c0-1.375 2.215-1.617 2.215-3.717 0-1.502-1.334-2.393-2.773-2.393-1.514 0-2.392.917-2.392.917l.89 1.107s.637-.536 1.362-.536c.7 0 1.235.458 1.235 1.056 0 1.312-2.1 1.605-2.1 3.45v.61zm0 2.61h1.566v-1.502H6.51V12z"
                      fill="#fff"/>
            </g>
            <g transform="translate(199.750000, 79.750000)" fill="#000">
                <path d="M8.65 10.517c-.933 0-1.867-.934-2.8-1.867-.933-.933-1.867-1.867-1.867-2.8 0-.933.934-.933 1.867-1.867C6.783 3.05 3.983.25 3.05.25c-.933 0-2.8 2.8-2.8 2.8 0 1.867 1.918 5.65 3.733 7.467 1.816 1.815 5.6 3.733 7.467 3.733 0 0 2.8-1.867 2.8-2.8 0-.933-2.8-3.733-3.733-2.8-.934.933-.934 1.867-1.867 1.867z"
                      id="Shape"/>
            </g>
            <g transform="translate(400.000000, 81.000000)" fill="#000">
                <path d="M10.346.464C9.938.03 9.246.004 8.808.41L1.914 6.8c-.438.405-.462 1.092-.054 1.527l5.935 6.322c.408.434 1.1.46 1.537.053l6.894-6.386c.438-.406.462-1.093.054-1.528L10.346.463zM3.168 7.606L9.532 1.71l5.44 5.795L8.608 13.4l-5.44-5.794zm4.926-2.684l3.462 3.688-.53.492-3.462-3.69.53-.49zm-1.06.983l3.46 3.688-.53.49-3.46-3.687.53-.49zm-1.06.982l3.46 3.688-.53.492-3.46-3.688.53-.494zm3.18-2.947l3.463 3.688-.53.49L8.625 4.43l.53-.49z"/>
                <path d="M9.738 10.622c-.865.86-.865 1.72-1.73 1.72s-1.73-.86-2.595-1.72c-.865-.86-1.73-1.718-1.73-2.578 0-.86.865-.86 1.73-1.718.865-.86-1.73-3.437-2.595-3.437-.864 0-2.594 2.576-2.594 2.576 0 1.718 1.777 5.202 3.46 6.874 1.682 1.672 5.19 3.438 6.92 3.438 0 0 2.593-1.72 2.593-2.578 0-.86-2.594-3.437-3.46-2.578z"
                      filter="url(#a)"/>
            </g>
            <path d="M327.65 80h-6.3c-.743 0-1.35.633-1.35 1.406v12.188c0 .773.608 1.406 1.35 1.406h6.3c.743 0 1.35-.633 1.35-1.406V81.406c0-.773-.608-1.406-1.35-1.406zm-4.95.703h3.6v.47h-3.6v-.47zm1.8 13.36c-.497 0-.9-.42-.9-.938s.403-.938.9-.938.9.42.9.938-.403.938-.9.938zm3.6-2.813h-7.2v-9.375h7.2v9.375z"
                  fill="#373737"/>
            <path d="M369.625 87l4.247-4.247c.046-.046.08-.1.1-.156.058-.156.025-.338-.1-.463l-2.006-2.006c-.125-.125-.307-.158-.463-.1-.057.02-.11.054-.156.1L367 84.375l-4.247-4.247c-.046-.046-.1-.08-.156-.1-.156-.058-.338-.025-.463.1l-2.006 2.006c-.125.125-.158.307-.1.463.02.057.054.11.1.156L364.375 87l-4.247 4.247c-.046.046-.08.1-.1.156-.058.156-.025.338.1.463l2.006 2.006c.125.125.307.158.463.1.057-.02.11-.054.156-.1L367 89.625l4.247 4.247c.046.046.1.08.156.1.156.058.338.025.463-.1l2.006-2.006c.125-.125.158-.307.1-.463-.02-.057-.054-.11-.1-.156 0 0-4.247-4.247-4.247-4.247z"
                  fill="#999"/>
            <path d="M448.25 86l3.64-3.64c.04-.04.068-.086.086-.134.05-.134.022-.29-.086-.397l-1.72-1.72c-.107-.11-.263-.137-.396-.087-.048.018-.094.046-.134.085L446 83.75l-3.64-3.64c-.04-.04-.086-.068-.134-.086-.134-.05-.29-.022-.397.086l-1.72 1.72c-.11.107-.137.263-.087.396.018.048.046.094.086.134l3.64 3.64-3.64 3.64c-.04.04-.07.086-.087.134-.05.133-.022.29.086.397l1.72 1.72c.106.11.262.137.395.087.048-.018.094-.046.134-.086l3.64-3.64 3.64 3.64c.04.04.085.07.133.087.134.05.29.022.397-.086l1.72-1.72c.108-.106.136-.262.086-.395-.018-.048-.046-.094-.086-.134 0 0-3.64-3.64-3.64-3.64z"
                  fill="#000"/>
            <g transform="translate(480.000000, 80.000000)" fill="#CD1719">
                <path d="M0 2C0 .897.902 0 2 0h19c1.104 0 2 .902 2 2v19c0 1.104-.902 2-2 2H2c-1.104 0-2-.902-2-2V2zm19.294 14.775l-7.3-12.942c-.1-.18-.29-.29-.494-.29-.205 0-.393.11-.495.29L3.707 16.775c-.1.176-.097.39.004.564.104.172.29.28.49.28h14.6c.2 0 .388-.108.49-.28.103-.176.103-.39.006-.566zm-6.893-.81h-1.8v-1.657h1.8v1.656zm0-2.9h-1.8V8.1h1.8v4.968z"/>
            </g>
            <g transform="translate(520.000000, 80.000000)" fill="#CD1719">
                <path d="M0 2C0 .897.902 0 2 0h19c1.104 0 2 .902 2 2v19c0 1.104-.902 2-2 2H2c-1.104 0-2-.902-2-2V2zm4.63 5.05C5.004 10.966 6.402 17.552 11.5 20c5.098-2.448 6.497-9.034 6.87-12.95L11.5 9.63 4.63 7.05zM18.5 4l-7 2-7-2s-.07.808 0 2l7 2.188L18.5 6c.07-1.192 0-2 0-2z"/>
            </g>
            <path d="M.235 124.428l1.14-1.145c.157-.157.347-.236.57-.236.224 0 .415.08.57.236l2.467 2.483 5.502-5.53c.156-.157.347-.236.57-.236.224 0 .414.08.57.236l1.14 1.145c.158.16.236.35.236.574 0 .224-.078.415-.235.572l-7.213 7.24c-.156.156-.346.235-.57.235-.224 0-.414-.08-.57-.235l-4.177-4.192C.078 125.415 0 125.223 0 125c0-.224.078-.415.235-.572z"
                  fill="#509500"/>
            <path d="M81.778 120c-.978 0-1.778.8-1.778 1.778v12.444c0 .98.8 1.778 1.778 1.778H88v-6.222h-1.778v-2.2H88v-1.822c0-1.924 1.077-3.275 3.348-3.275l1.602.004v2.315h-1.064c-.883 0-1.22.662-1.22 1.277v1.503h2.283l-.507 2.198h-1.777V136h3.555c.98 0 1.78-.8 1.78-1.778v-12.444c0-.978-.8-1.778-1.78-1.778H81.78z"
                  fill="#fff"/>
            <path d="M210 120c-5.523 0-10 4.477-10 10s4.477 10 10 10 10-4.477 10-10-4.477-10-10-10zm-3.75 15v-10l10.005 5-10.005 5z"
                  fill="#010101"/>
            <g transform="translate(400.000000, 120.000000)">
                <rect fill="#C0C0C0" width="17" height="17" rx="3"/>
                <path d="M6.708 6.363h2.6v6.644h1.2v1.323H6.722v-1.323H7.86V7.685H6.71V6.363zm.884-2.823c0-.133.027-.26.08-.38.055-.12.126-.226.216-.316s.196-.16.32-.215c.122-.056.253-.083.39-.083.135 0 .262.027.382.08.12.055.226.127.315.216.09.09.162.195.216.316.056.12.08.246.08.38 0 .14-.024.27-.08.392-.052.123-.124.232-.214.326s-.194.17-.315.222c-.12.054-.246.08-.38.08-.14 0-.27-.026-.392-.08-.123-.053-.23-.128-.32-.223s-.16-.204-.214-.327c-.054-.124-.08-.254-.08-.393z"
                      fill="#fff"/>
            </g>
            <path d="M448.5832108557224,126.31851354241371 L452.2232108557224,122.67851354241371 C452.26321085572243,122.6385135424137 452.29121085572245,122.59251354241371 452.3092108557224,122.54451354241371 C452.35921085572244,122.41051354241371 452.3312108557224,122.25451354241372 452.2232108557224,122.1475135424137 L450.50321085572244,120.4275135424137 C450.3962108557224,120.3175135424137 450.2402108557224,120.2905135424137 450.1072108557224,120.34051354241373 C450.0592108557224,120.35851354241372 450.01321085572243,120.38651354241371 449.9732108557224,120.42551354241371 L446.3332108557224,124.06851354241371 L442.69321085572244,120.42851354241371 C442.6532108557224,120.3885135424137 442.6072108557224,120.36051354241371 442.5592108557224,120.34251354241371 C442.4252108557224,120.29251354241372 442.2692108557224,120.3205135424137 442.16221085572244,120.42851354241371 L440.4422108557224,122.14851354241371 C440.33221085572245,122.25551354241371 440.3052108557224,122.41151354241373 440.3552108557224,122.54451354241371 C440.37321085572245,122.59251354241371 440.4012108557224,122.6385135424137 440.44121085572243,122.67851354241371 L444.0812108557224,126.31851354241371 L440.44121085572243,129.95851354241373 C440.4012108557224,129.99851354241372 440.37121085572244,130.0445135424137 440.35421085572244,130.0925135424137 C440.30421085572243,130.2255135424137 440.33221085572245,130.38251354241373 440.44021085572246,130.4895135424137 L442.1602108557224,132.20951354241376 C442.2662108557224,132.31951354241372 442.4222108557224,132.34651354241373 442.5552108557224,132.29651354241372 C442.6032108557224,132.2785135424137 442.6492108557224,132.25051354241373 442.6892108557224,132.2105135424137 L446.3292108557224,128.57051354241372 L449.96921085572245,132.2105135424137 C450.0092108557224,132.25051354241373 450.05421085572243,132.2805135424137 450.10221085572243,132.2975135424137 C450.23621085572245,132.3475135424137 450.39221085572245,132.31951354241372 450.4992108557224,132.2115135424137 L452.21921085572245,130.4915135424137 C452.32721085572246,130.38551354241372 452.3552108557224,130.2295135424137 452.3052108557224,130.09651354241373 C452.28721085572244,130.04851354241373 452.2592108557224,130.0025135424137 452.21921085572245,129.96251354241372 C452.21921085572245,129.96251354241372 448.5792108557224,126.32251354241372 448.5792108557224,126.32251354241372 L448.5832108557224,126.31851354241371 z" fill="#6A6A6A"/>
        </g>
    </g>
</svg>