<svg xmlns="http://www.w3.org/2000/svg" width="24" height="24" viewBox="0 0 24 24">
    <path fill="#FFF" d="M3.889 15.64h3.968c.387 2.038 1.077 3.768 1.987 4.839-2.607-.645-4.79-2.42-5.957-4.838h.002zm16.223 0c-1.165 2.42-3.348 4.193-5.954 4.839.908-1.07 1.598-2.8 1.986-4.84l3.968.002zm-5.818 0c-.526 2.457-1.472 4.2-2.294 4.2-.822 0-1.767-1.743-2.293-4.2h4.587zm.29-6c.154 1.396.154 2.804 0 4.2H9.417c-.155-1.396-.155-2.804 0-4.2h5.167zm6.17 0c.33 1.38.33 2.819 0 4.2H16.4c.135-1.397.135-2.804 0-4.2h4.355zm-17.507 0H7.6c-.134 1.396-.134 2.803 0 4.2H3.248c-.33-1.381-.33-2.82 0-4.2h-.001zM14.157 3c2.607.646 4.79 2.42 5.955 4.84h-3.968c-.37-1.935-1.01-3.592-1.85-4.67L14.158 3zM9.844 3c-.909 1.072-1.599 2.8-1.987 4.84H3.889c1.15-2.387 3.29-4.148 5.854-4.815l.1-.025zM12 3.64c.822 0 1.768 1.742 2.294 4.2H9.708c.525-2.458 1.47-4.2 2.292-4.2z"/>
</svg>
