<svg xmlns="http://www.w3.org/2000/svg" width="24" height="24" viewBox="0 0 24 24">
    <g fill="none">
        <rect width="24" height="24" fill="#0a84ff" rx="4"/>
        <path fill="#FFF" d="M7.662 16.902c1.155 1.022 2.674 1.643 4.338 1.643 1.664 0 3.183-.62 4.338-1.643-.213-.766-1.742-1.266-4.338-1.266s-4.125.5-4.338 1.266zm-1.043-1.175c.818-1.081 2.741-1.545 5.381-1.545s4.563.464 5.381 1.545c.734-1.058 1.164-2.342 1.164-3.727 0-3.615-2.93-6.545-6.545-6.545-3.615 0-6.545 2.93-6.545 6.545 0 1.385.43 2.67 1.164 3.727zM12 20c-4.418 0-8-3.582-8-8s3.582-8 8-8 8 3.582 8 8-3.582 8-8 8zm-2.91-9.455c0-1.632 1.15-2.909 2.91-2.909 1.756 0 2.91 1.398 2.91 3.055 0 2.385-1.297 3.49-2.91 3.49-1.628 0-2.91-1.143-2.91-3.636zm1.455 0c0 1.65.596 2.182 1.455 2.182.857 0 1.455-.51 1.455-2.036 0-.909-.57-1.6-1.455-1.6-.92 0-1.455.593-1.455 1.454z"/>
    </g>
</svg>
