<svg xmlns="http://www.w3.org/2000/svg" width="24" height="24" viewBox="0 0 24 24">
    <defs>
         
    </defs>
    <g fill="none" fill-rule="evenodd"   transform="translate(-252 -12)">
        <path fill="#ffda25" fill-rule="nonzero" d="M258.035 30.74C259.623 32.146 261.712 33 264 33s4.377-.854 5.965-2.26C269.672 29.687 267.569 29 264 29c-3.57 0-5.672.687-5.965 1.74zm-1.434-1.615C257.726 27.638 260.37 27 264 27c3.63 0 6.274.638 7.4 2.125 1.009-1.455 1.6-3.22 1.6-5.125 0-4.97-4.03-9-9-9s-9 4.03-9 9c0 1.904.591 3.67 1.6 5.125zM264 35c-6.075 0-11-4.925-11-11s4.925-11 11-11 11 4.925 11 11-4.925 11-11 11zm-4-13c0-2.244 1.58-4 4-4 2.414 0 4 1.922 4 4.2 0 3.28-1.782 4.8-4 4.8-2.24 0-4-1.573-4-5zm2 0c0 2.27.818 3 2 3 1.178 0 2-.702 2-2.8 0-1.25-.784-2.2-2-2.2-1.266 0-2 .816-2 2z"/>
    </g>
</svg>
