<svg xmlns="http://www.w3.org/2000/svg" width="24" height="21" viewBox="0 0 24 21">
    <g fill="none">
        <path fill="#FFDA27" d="M21.073 0v2.883c0 .33.272.556.72.556.456 0 .728-.226.728-.556V.001h1.211v2.934c0 1.016-.763 1.563-1.94 1.563-1.185 0-1.94-.547-1.94-1.563V.001h1.22zm-1.746.002v.984h-2.019v.772h1.853v.984h-1.853v.772h2.01v.983h-3.23V.002h3.24z"/>
        <path fill="#FFF" d="M6.45 0L0 19.545h5.726l1.126-3.741h6.451l1.126 3.74h5.726L13.705 0H6.45zm3.551 5.383h.152l1.948 6.45H8.055L10 5.383z"/>
    </g>
</svg>
