<svg width="24" height="24" viewBox="0 0 24 24" xmlns="http://www.w3.org/2000/svg" xmlns:xlink="http://www.w3.org/1999/xlink">
    <defs>
        <path id="a" d="M0 0h24v24H0z"/>
        <path id="c" d="M0 0h15.738v14.602H0z"/>
        <linearGradient x1="0%" y1="80.977%" x2="100%" y2="9.074%" id="e">
            <stop stop-color="#FFDA25" offset="0%"/>
            <stop stop-color="#FFB705" offset="100%"/>
        </linearGradient>
    </defs>
    <g fill="none" fill-rule="evenodd">
        <mask id="b" fill="#fff">
            <use xlink:href="#a"/>
        </mask>
        <g mask="url(#b)">
            <g transform="translate(8.262 4.28)">
                <mask id="d" fill="#fff">
                    <use xlink:href="#c"/>
                </mask>
                <path d="m15.44.387-.018.016-.023.015v.004c-.612.47-1.24.991-1.871 1.576a25.334 25.334 0 0 0-2.276 2.397c-1.834 2.196-3.664 5.098-5.354 9.132v.004c-.163.387-.26.627-.698.763l-.905.289a.452.452 0 0 1-.116.019c-.208 0-.282-.232-.345-.406l-.004-.004c-.805-2.28-1.945-3.776-3.378-4.752l-.004-.004c-.483-.357-.646-.395-.134-.828.472-.338.973-.566 1.512-.566.883 0 1.867.619 2.992 2.416 1.997-3.791 3.598-5.827 5.253-7.214.914-.763 1.838-1.333 2.856-1.888.742-.406 1.53-.805 2.398-1.269a.913.913 0 0 1 .32-.087c.152 0 .14.122-.205.387" fill="#FFF" mask="url(#d)"/>
            </g>
            <path d="M20.066 2.918c-1.027.566-1.967 1.155-2.9 1.951C12.989 2 7.122 2.748 3.498 6.825.613 10.064-.059 14.51 1.43 18.154-.917 13.714-.395 8.067 3.143 4.095 7.57-.884 15.08-1.378 20.066 2.918" fill="url(#e)" fill-rule="nonzero" transform="translate(0 2.308)"/>
        </g>
    </g>
</svg>
