<svg width="392" height="85" viewBox="0 0 392 85" xmlns="http://www.w3.org/2000/svg"><desc>Created with Sketch.</desc><path d="M169.8 84.7c37.9.7 76.4-24.7 76.4-24.7s-31.3 18.9-70.3 19c-39 .1-56.8-19.1-56.8-19.1s12.7 24.1 50.7 24.8m169.8-38.4l-1.6 6.9h6.6l1.6-6.9h-6.6zM134.1 33.5l-3.2 13.9c-.8.4-1.5.7-2.2 1-.7.2-1.3.3-1.8.3-1 0-1.7-.2-2.1-.5-.4-.3-.6-.9-.6-1.7 0-.4 0-.8.1-1.4.1-.5.2-1.2.4-1.9l2.2-9.7h-6.3l-3 12.8c-.1.5-.2.9-.2 1.2 0 .4-.1.8-.1 1.2 0 1.6.5 2.8 1.5 3.7 1 .8 2.4 1.2 4.1 1.2.5 0 1.1-.1 1.7-.1.6-.1 1.2-.3 1.8-.6.5-.2 1.1-.5 1.7-.8.6-.4 1.2-.7 1.8-1.1l-.5 2.2h6.3l4.5-19.6h-6.1v-.1zm99.7 0l-6 13.5-1.2-13.5H221L214 47l-.6-13.5H207l1.9 19.6h6.8l6.6-13.3 1.3 13.3h6.7l10.3-19.6h-6.8zm-145.4.8c-1.2.5-2.4 1.3-3.6 2.1l.7-2.9h-6.3l-4.5 19.6H81L84 40c.8-.3 1.6-.5 2.4-.6.8-.1 1.6-.2 2.4-.2.5 0 1 0 1.5.1.5 0 .9.1 1.2.2h.6l1.4-6c-.2 0-.5 0-.7-.1h-.7c-1.3.1-2.5.3-3.7.9zm-79.6 13c-.5-.6-.7-1.3-.7-2.3 0-2.2.6-4 1.7-5.4 1.1-1.4 2.7-2.1 4.5-2.1.4 0 .9.1 1.5.2s1 .3 1.3.4l-2 8.9c-.6.3-1.2.6-1.8.8-.6.2-1.3.4-1.9.4-1.2 0-2.1-.3-2.6-.9zM4.7 36.7c-2.2 2.5-3.3 5.6-3.3 9.5 0 2.2.6 3.9 1.9 5 1.2 1.1 3 1.7 5.2 1.7 1.1 0 2.1-.2 3-.5.9-.4 1.8-.8 2.7-1.5l-.1.4c-.2.9-.4 1.6-.7 2.2-.3.6-.7 1.1-1.2 1.5-.5.4-1.1.7-1.9.9-.8.2-1.8.3-2.9.3-.8 0-1.6-.1-2.6-.3-1-.2-2-.5-2.9-.9h-.8l-1 4.8c.9.2 2 .4 3.3.6 1.3.2 2.6.3 4.1.3 1.7 0 3.2-.2 4.6-.5 1.4-.3 2.6-.8 3.8-1.6 1.1-.7 2.1-1.7 2.9-3 .8-1.2 1.4-2.8 1.8-4.6l3.9-17.4h-6.1l-.4.9c-.6-.4-1.3-.7-2.2-1-.9-.3-1.9-.4-3.1-.4-3.1-.1-5.8 1.1-8 3.6zm145.9-2.8c-1.7.6-3.2 1.5-4.3 2.6-1.2 1.1-2.2 2.5-2.8 4-.7 1.5-1 3.1-1 4.9 0 1.4.2 2.6.7 3.6.5 1 1.1 1.9 2 2.6.9.7 1.9 1.2 3.1 1.5 1.2.3 2.4.5 3.8.5 1.5 0 2.7-.1 3.7-.4.9-.2 2.1-.6 3.3-1.2l1.3-5.4h-.9c-.7.6-1.6 1.2-2.6 1.7s-2.1.7-3.3.7c-1.6 0-2.7-.4-3.4-1.1-.7-.7-1.1-1.8-1.1-3.3 0-2.1.6-3.9 1.8-5.3 1.2-1.4 2.8-2.1 4.8-2.1 1.1 0 2.1.2 2.9.6.9.4 1.6 1 2.3 1.8h.9l1.3-5.4c-1-.5-2.1-.9-3.3-1.2-1.2-.3-2.4-.4-3.6-.4-2.1.4-3.9.7-5.6 1.3zm120.9 13.4c-.5-.6-.7-1.3-.7-2.3 0-2.2.6-4 1.7-5.4 1.1-1.4 2.7-2.1 4.5-2.1.4 0 .9.1 1.5.2s1 .3 1.3.4l-2 8.9c-.6.3-1.2.6-1.8.8-.6.2-1.3.4-1.9.4-1.2 0-2.1-.3-2.6-.9zm-4.1-10.6c-2.2 2.5-3.3 5.6-3.3 9.5 0 2.2.6 3.9 1.9 5 1.2 1.1 3 1.7 5.2 1.7 1.1 0 2.1-.2 3-.5.9-.4 1.8-.8 2.7-1.5l-.1.4c-.2.9-.4 1.6-.7 2.2-.3.6-.7 1.1-1.2 1.5-.5.4-1.1.7-1.9.9-.8.2-1.8.3-2.9.3-.8 0-1.7-.1-2.6-.3-1-.2-2-.5-2.9-.9h-.8l-1 4.8c.9.2 2 .4 3.3.6 1.3.2 2.6.3 4.1.3 1.7 0 3.2-.2 4.6-.5 1.4-.3 2.6-.8 3.8-1.6 1.1-.7 2.1-1.7 2.9-3 .8-1.2 1.4-2.8 1.8-4.6l3.9-17.4h-6.1l-.4.9c-.6-.4-1.3-.7-2.2-1-.9-.3-1.9-.4-3.1-.4-3.1-.1-5.8 1.1-8 3.6zm58.8-3c-1.1.5-2.2 1.1-3.5 2l.5-2.2h-6.3l-4.5 19.6h6.3l3.2-13.9c.8-.4 1.6-.8 2.2-1 .7-.2 1.2-.3 1.7-.3 1 0 1.7.2 2.1.5.4.4.6.9.6 1.7 0 .4 0 .9-.1 1.4-.1.5-.2 1.1-.4 1.9l-2.2 9.7h6.4l2.9-12.8c.1-.4.2-.9.2-1.3s.1-.8.1-1.1c0-1.6-.5-2.9-1.5-3.7-1-.8-2.3-1.3-4.1-1.3-1.3.1-2.5.3-3.6.8zM99.4 49.1c-.5-.3-.7-.7-.7-1.4 0-.8.2-1.4.6-1.9.4-.5.9-.8 1.6-1.1.7-.2 1.5-.4 2.5-.6 1-.1 2-.2 3.2-.3l-1 4.1c-.6.4-1.3.8-2 1.1-.7.3-1.4.4-2 .4-1 .1-1.7 0-2.2-.3zm1-15.8c-1.5.2-2.7.4-3.4.6l-.9 4.6h.6c.6-.2 1.6-.5 2.8-.9 1.3-.3 2.4-.5 3.4-.5 1.5 0 2.7.2 3.4.5.8.3 1.2.9 1.2 1.7 0 .2 0 .4-.1.5 0 .2-.1.3-.1.3-2.2.1-4.2.3-6.1.6-1.9.3-3.5.7-4.8 1.3-1.4.6-2.5 1.5-3.3 2.6-.7 1.1-1.1 2.4-1.1 3.9s.5 2.7 1.5 3.6c1 .9 2.4 1.4 4 1.4 1 0 1.8-.1 2.4-.2.6-.1 1.2-.3 1.8-.6.5-.2 1-.5 1.6-.9.6-.4 1-.7 1.4-.9l-.5 2.1h6.3l3.1-13.3c.1-.3.1-.6.2-1 0-.4.1-.7.1-.9 0-1.7-.7-2.9-2.2-3.7-1.4-.8-3.7-1.2-6.8-1.2-1.5.1-3 .2-4.5.4zm146.2 15.8c-.5-.3-.7-.7-.7-1.4 0-.8.2-1.4.6-1.9.4-.5.9-.8 1.6-1.1.7-.2 1.5-.4 2.5-.6 1-.2 2-.2 3.2-.3l-1 4.1c-.6.4-1.3.8-2 1.1-.7.3-1.4.4-2 .4-1 .1-1.7 0-2.2-.3zm1-15.8c-1.5.2-2.7.4-3.4.6l-.9 4.6h.6c.6-.2 1.6-.5 2.8-.9 1.3-.3 2.4-.5 3.4-.5 1.5 0 2.7.2 3.4.5.8.3 1.2.9 1.2 1.7 0 .2 0 .4-.1.5 0 .2-.1.3-.1.3-2.2.1-4.2.3-6.1.6-1.9.3-3.5.7-4.8 1.3-1.4.6-2.5 1.5-3.3 2.6-.7 1.1-1.1 2.4-1.1 3.9s.5 2.7 1.5 3.6c1 .9 2.4 1.4 4 1.4 1 0 1.8-.1 2.4-.2.6-.1 1.2-.3 1.8-.6.5-.2 1-.5 1.6-.9.6-.4 1-.7 1.4-.9l-.5 2.1h6.3l3.1-13.3c.1-.3.1-.6.2-1 0-.4.1-.7.1-.9 0-1.7-.7-2.9-2.2-3.7-1.4-.8-3.7-1.2-6.8-1.2-1.4.1-3 .2-4.5.4zm110.1 15.8c-.5-.3-.7-.7-.7-1.4 0-.8.2-1.4.6-1.9.4-.5.9-.8 1.6-1.1.7-.2 1.5-.4 2.5-.6 1-.1 2-.2 3.2-.3l-1 4.1c-.6.4-1.3.8-2 1.1-.7.3-1.4.4-2 .4-1 .1-1.7 0-2.2-.3zm1-15.8c-1.5.2-2.7.4-3.4.6l-.9 4.6h.6c.6-.2 1.6-.5 2.8-.9 1.3-.3 2.4-.5 3.4-.5 1.5 0 2.7.2 3.4.5.8.3 1.2.9 1.2 1.7 0 .2 0 .4-.1.5 0 .2-.1.3-.1.3-2.2.1-4.2.3-6.1.6-1.9.3-3.5.7-4.8 1.3-1.4.6-2.5 1.5-3.3 2.6-.7 1.1-1.1 2.4-1.1 3.9s.5 2.7 1.5 3.6c1 .9 2.4 1.4 4 1.4 1 0 1.8-.1 2.4-.2.6-.1 1.2-.3 1.8-.6.5-.2 1-.5 1.6-.9.6-.4 1-.7 1.4-.9l-.5 2.1h6.3l3.1-13.3c.1-.3.1-.6.2-1 0-.4.1-.7.1-.9 0-1.7-.7-2.9-2.2-3.7-1.4-.8-3.7-1.2-6.8-1.2-1.5.1-3 .2-4.5.4zM35.3 37.9c.9-.7 2-1.1 3.3-1.1 1.1 0 1.9.2 2.5.7.6.5.9 1.2.9 2.1v.5c0 .2 0 .4-.1.6h-8.5c.3-1.1 1-2.1 1.9-2.8zm-1.4-4c-1.6.6-2.9 1.5-4 2.6s-2 2.4-2.6 3.9c-.6 1.5-.9 3.1-.9 4.9 0 2.6.9 4.7 2.7 6.1 1.8 1.5 4.4 2.2 7.7 2.2 1.5 0 3-.1 4.3-.4 1.4-.3 2.6-.7 3.9-1.2l1.2-5h-.7c-.9.6-2 1.1-3.2 1.6-1.2.5-2.5.7-3.9.7-2 0-3.4-.4-4.4-1.2-1-.8-1.4-1.8-1.4-3.2v-.4h14.6c.3-.7.5-1.5.6-2.3.2-.8.2-1.5.2-2.3 0-2.3-.7-4.1-2.2-5.2-1.5-1.2-3.7-1.8-6.6-1.8-1.9 0-3.6.3-5.3 1zm264.1 4c.9-.7 2-1.1 3.3-1.1 1.1 0 1.9.2 2.5.7.6.5.9 1.2.9 2.1v.5c0 .2 0 .4-.1.6H296c.4-1.1 1.1-2.1 2-2.8zm-1.3-4c-1.6.6-2.9 1.5-4 2.6s-2 2.4-2.6 3.9c-.6 1.5-.9 3.1-.9 4.9 0 2.6.9 4.7 2.7 6.1 1.8 1.5 4.4 2.2 7.7 2.2 1.5 0 3-.1 4.3-.4 1.4-.3 2.6-.7 3.9-1.2l1.2-5h-.7c-.9.6-2 1.1-3.2 1.6-1.2.5-2.5.7-3.9.7-2 0-3.4-.4-4.4-1.2-1-.8-1.4-1.8-1.4-3.2v-.4H310c.3-.7.5-1.5.6-2.3.2-.8.2-1.5.2-2.3 0-2.3-.7-4.1-2.2-5.2-1.5-1.2-3.7-1.8-6.6-1.8-2 0-3.7.3-5.3 1zm-102.2-6l-1.3 5.6h-2.6l-1 4.1h2.6l-2.1 9.3c-.1.5-.2.9-.2 1.2-.1.3-.1.7-.1 1.1 0 1.4.5 2.5 1.4 3.2.9.7 2.5 1.1 4.7 1.1 1.1 0 2 0 2.8-.1.8-.1 1.5-.2 2.2-.4l1-4.2h-.5c-.3.2-.7.3-1.3.4-.5.1-1 .2-1.3.2-.8 0-1.4-.1-1.8-.4-.4-.3-.6-.8-.6-1.5 0-.3.1-.8.2-1.3s.2-1 .3-1.5l1.6-7.1h5.9l1-4.1h-5.9l1.3-5.6h-6.3zm186.3 0l-1.3 5.6h-2.6l-1 4.1h2.6l-2.1 9.3c-.1.5-.2.9-.2 1.2-.1.3-.1.7-.1 1.1 0 1.4.5 2.5 1.4 3.2.9.7 2.5 1.1 4.7 1.1 1.1 0 2 0 2.8-.1.8-.1 1.5-.2 2.2-.4l1-4.2h-.5c-.3.2-.7.3-1.3.4-.5.1-1 .2-1.3.2-.8 0-1.4-.1-1.8-.4-.4-.3-.6-.8-.6-1.5 0-.3.1-.8.2-1.3s.2-1 .3-1.5l1.6-7.1h5.9l1-4.1h-5.9l1.3-5.6h-6.3zM58.3 49c-.5-.1-.9-.2-1.3-.4l2.3-9.9c.7-.3 1.3-.6 1.9-.8.6-.2 1.2-.3 1.8-.3 1.2 0 2 .3 2.5.9.5.6.7 1.4.7 2.5 0 2.4-.6 4.4-1.7 5.9s-2.7 2.3-4.6 2.3c-.6 0-1.2-.1-1.6-.2zm-2.4-23l-6.3 27.2h6.1l.5-1c.7.5 1.4.8 2.3 1 .9.2 1.8.3 2.9.3 1.7 0 3.2-.4 4.6-1.1 1.4-.8 2.6-1.8 3.6-3s1.8-2.7 2.4-4.4c.6-1.7.9-3.4.9-5.2 0-2.1-.5-3.8-1.6-5-1-1.2-2.6-1.8-4.6-1.8-1.3 0-2.4.2-3.4.7-1 .5-2.1 1.1-3.2 1.9l2.2-9.6h-6.4zm113.2 0l-6.3 27.2h6.3l3.2-13.9c.8-.4 1.5-.8 2.2-1 .7-.2 1.2-.3 1.7-.3 1 0 1.7.2 2.1.5.4.3.6.9.6 1.7 0 .4 0 .9-.1 1.4-.1.5-.2 1.1-.4 1.9l-2.2 9.7h6.4l2.9-12.8c.1-.4.2-.9.2-1.3s.1-.8.1-1.1c0-1.6-.5-2.8-1.5-3.7-1-.9-2.3-1.3-4.1-1.3-1.3 0-2.5.2-3.5.7-1.1.5-2.2 1.1-3.5 2l2.2-9.7h-6.3zm-25.4-1.3S175 5.8 214 5.7c39-.1 56.8 19.1 56.8 19.1S258 .7 220.1 0h-1.6c-37.4 0-74.8 24.7-74.8 24.7" fill="#fff" fill-rule="evenodd"/></svg>