<svg xmlns="http://www.w3.org/2000/svg" width="36" height="36" viewBox="0 0 36 36">
    <defs>
        <linearGradient id="prefix__a" x1="50%" x2="50%" y1="100%" y2="0%">
            <stop offset="0%" stop-color="#E12F9B"/>
            <stop offset="100%" stop-color="#7A3DE4"/>
        </linearGradient>
    </defs>
    <path fill="url(#prefix__a)" d="M25.286 3c2.366.003 4.283 1.92 4.285 4.286v21.428c-.002 2.366-1.92 4.283-4.285 4.286h-15C7.92 32.997 6.003 31.08 6 28.714V7.286C6.003 4.92 7.92 3.003 10.286 3zm-7.5 16.071h-5.357c-.592 0-1.072.48-1.072 1.072 0 .592.48 1.071 1.072 1.071h5.357c.591 0 1.071-.48 1.071-1.071 0-.592-.48-1.072-1.071-1.072zm5.357-5.357H12.429c-.592 0-1.072.48-1.072 1.072 0 .591.48 1.071 1.072 1.071h10.714c.592 0 1.071-.48 1.071-1.071 0-.592-.48-1.072-1.071-1.072zm0-5.357H12.429c-.592 0-1.072.48-1.072 1.072 0 .591.48 1.071 1.072 1.071h10.714c.592 0 1.071-.48 1.071-1.071 0-.592-.48-1.072-1.071-1.072z"/>
</svg>
