<svg xmlns="http://www.w3.org/2000/svg" width="25" height="24" viewBox="0 0 25 24">
    <g fill="none" fill-rule="evenodd">
        <g fill="#FFF" fill-rule="nonzero">
            <g>
                <g>
                    <g>
                        <path d="M12 22c1.372 0 2.661-.262 3.868-.787 1.207-.525 2.27-1.247 3.19-2.166.919-.919 1.639-1.98 2.16-3.184C21.74 14.66 22 13.372 22 12c0-1.372-.26-2.66-.782-3.863-.521-1.204-1.243-2.267-2.166-3.19-.922-.922-1.987-1.644-3.194-2.165C14.651 2.26 13.361 2 11.99 2c-1.358 0-2.64.26-3.848.782-1.207.521-2.272 1.243-3.194 2.166-.923.922-1.645 1.985-2.166 3.189C2.26 9.34 2 10.628 2 12c0 1.372.262 2.66.787 3.863.525 1.204 1.247 2.265 2.166 3.184.919.92 1.982 1.641 3.189 2.166C9.349 21.738 10.635 22 12 22zm0-1.842c-1.125 0-2.181-.21-3.169-.632-.987-.422-1.853-1.005-2.597-1.75-.745-.743-1.326-1.61-1.744-2.597-.419-.988-.628-2.047-.628-3.179 0-1.125.21-2.181.628-3.169.418-.987 1-1.855 1.744-2.603.744-.747 1.608-1.332 2.592-1.754.984-.422 2.039-.632 3.164-.632 1.138 0 2.2.21 3.184.632.984.422 1.85 1.007 2.598 1.754.747.748 1.332 1.616 1.754 2.603.422.988.632 2.044.632 3.169.007 1.132-.202 2.191-.627 3.179s-1.008 1.854-1.75 2.598c-.74.744-1.604 1.327-2.592 1.749-.987.422-2.05.632-3.189.632zm-4.537-6.707c.398 0 .737-.143 1.018-.427.282-.285.422-.626.422-1.024s-.142-.739-.427-1.024c-.284-.284-.622-.427-1.013-.427-.398 0-.74.143-1.024.427-.284.285-.427.626-.427 1.024s.143.739.427 1.024c.285.284.626.427 1.024.427zm4.527 0c.398 0 .739-.143 1.023-.427.285-.285.427-.626.427-1.024s-.142-.739-.427-1.024c-.284-.284-.625-.427-1.023-.427-.398 0-.74.143-1.024.427-.285.285-.427.626-.427 1.024s.142.739.427 1.024c.285.284.626.427 1.024.427zm4.526 0c.398 0 .738-.143 1.019-.427.281-.285.422-.626.422-1.024s-.14-.739-.422-1.024c-.281-.284-.62-.427-1.019-.427-.397 0-.737.143-1.018.427-.281.285-.422.626-.422 1.024s.14.739.422 1.024c.281.284.62.427 1.018.427z" transform="translate(-535 -466) translate(185 454) translate(311 4) translate(39.5 8)"/>
                    </g>
                </g>
            </g>
        </g>
    </g>
</svg>
