<svg xmlns="http://www.w3.org/2000/svg" width="32" height="32" viewBox="0 0 32 32">
    <g fill="none" fill-rule="evenodd">
        <g fill="#FFF" fill-rule="nonzero">
            <g>
                <g>
                    <g>
                        <path d="M7.376 18.183c-2.15-.18-4.06 1.254-4.563 3.354-.046.192-.088.384-.131.576v.84c.03.143.064.283.091.426.448 2.259 2.597 3.796 4.862 3.476 2.426-.34 4.097-2.538 3.723-4.968-.338-2.2-2.012-3.54-3.982-3.704zm-.317 7.208c-1.57.01-2.846-1.257-2.858-2.846-.015-1.574 1.245-2.846 2.837-2.868 1.55-.021 2.855 1.251 2.868 2.789.012 1.638-1.23 2.913-2.847 2.925zm8-17.023c-.56.08-1.11.156-1.674.235v1.513c.457-.11.962.006 1.318-.408.049-.055.116-.092.174-.137.59-.43 1.236-.703 1.981-.573.341.061.67.198 1.03.308.474-.737.566-1.531.222-2.374-.299-.737-.761-1.294-1.583-1.465-.213-.045-.433-.073-.649-.106h-.265c-.045.015-.09.036-.14.048-.63.134-1.217.357-1.643.874-.277.335-.433.722-.47 1.181.582-.094 1.133-.185 1.7-.28v1.184zm5.206 13.325c.219-1.742 1.111-2.965 2.788-3.568 1.093-.393 2.232-.454 3.38-.442.078 0 .185-.012.237-.064.365-.359.423-1.02.14-1.43-.085-.125-.186-.186-.347-.183-.798.01-1.595.003-2.393.003h-1.644c-.277-.858-.937-1.434-1.388-2.167-.067.045-.103.07-.137.097-.831.649-1.662 1.297-2.49 1.951-.134.107-.265.159-.441.156-.752-.013-1.507-.01-2.26-.016-.465-.003-.928-.009-1.393-.018-.557-.009-.901.235-1.069.773l-.06.198c-.944-.359-1.754-.855-2.23-1.784 1.438-1.099 2.856-2.185 4.281-3.278l2.749 3.823c.965-.721 1.915-1.433 2.861-2.143-.356-.478-.685-.94-1.035-1.388-.62-.797-1.22-1.613-1.887-2.371-.597-.68-1.86-.737-2.581-.192-1.413 1.068-2.825 2.137-4.238 3.202-.186.14-.374.28-.587.436-.028-.271-.05-.509-.077-.798-.977.396-1.917.773-2.852 1.166-.228.097-.435.25-.636.396-.679.502-1.03 1.163-.944 2.021.052.542.247 1.044.493 1.525.03.058.137.1.213.11.33.04.664.045.99.097 1.248.204 2.298.764 3.077 1.781.61.795.987 1.699 1.17 2.667.094.505.386.791.779 1.029.188.112.392.204.596.283.938.356 1.921.444 2.91.475 1.151.036 2.302.033 3.453.048.203.003.407 0 .608 0 0-.076.006-.128 0-.18-.106-.73-.127-1.473-.036-2.215zm4.71-3.516c-2.37.009-4.314 1.774-4.378 4.25-.067 2.495 1.9 4.471 4.353 4.48 2.38.01 4.362-1.97 4.371-4.365.006-2.372-1.966-4.375-4.347-4.365zm-.028 7.214c-1.586 0-2.853-1.266-2.85-2.855.003-1.59 1.267-2.853 2.856-2.85 1.592.003 2.85 1.26 2.85 2.856 0 1.589-1.264 2.85-2.856 2.85z" transform="translate(-193 -1605) translate(185 1481) translate(0 116) translate(8 8)"/>
                    </g>
                </g>
            </g>
        </g>
    </g>
</svg>
