<svg xmlns="http://www.w3.org/2000/svg" width="24" height="24" viewBox="0 0 24 24">
    <g fill="none" fill-rule="evenodd">
        <g fill="#FFF" fill-rule="nonzero">
            <g>
                <g>
                    <g>
                        <path d="M5.532 13.637c-1.612-.135-3.046.94-3.422 2.516-.035.144-.067.288-.099.431v.63c.023.108.048.213.069.32.336 1.694 1.947 2.847 3.646 2.608 1.82-.256 3.073-1.905 2.792-3.726-.253-1.651-1.509-2.656-2.986-2.779zm-.237 5.406C4.116 19.05 3.16 18.1 3.15 16.91c-.012-1.18.933-2.135 2.128-2.151 1.162-.016 2.141.938 2.15 2.091.01 1.229-.922 2.185-2.134 2.194zm6-12.767c-.42.06-.834.117-1.256.176v1.135c.342-.082.721.004.988-.306.037-.041.087-.069.13-.103.443-.322.927-.527 1.487-.43.256.047.502.15.772.231.356-.552.424-1.148.166-1.78-.224-.553-.57-.97-1.187-1.099-.16-.034-.324-.054-.486-.08h-.199c-.034.012-.068.028-.105.037-.473.1-.913.267-1.233.655-.208.251-.324.541-.351.886.436-.07.849-.14 1.274-.21v.888zm3.904 9.993c.164-1.306.833-2.223 2.091-2.675.82-.295 1.673-.34 2.534-.331.06 0 .14-.01.178-.048.274-.27.318-.765.105-1.073-.064-.094-.139-.14-.26-.137-.598.006-1.196.002-1.794.002H16.82c-.208-.644-.704-1.075-1.041-1.626-.05.035-.078.053-.103.073-.623.487-1.247.973-1.868 1.464-.1.08-.198.119-.33.116-.565-.009-1.131-.007-1.695-.011-.35-.002-.696-.007-1.046-.014-.417-.007-.675.176-.8.58l-.047.148c-.707-.269-1.315-.641-1.67-1.337l3.21-2.46 2.06 2.868c.725-.54 1.437-1.075 2.147-1.607-.267-.359-.514-.706-.776-1.041-.466-.598-.916-1.21-1.416-1.779-.447-.509-1.395-.552-1.936-.144C10.45 8.04 9.39 8.84 8.331 9.64c-.14.105-.28.21-.44.327-.021-.203-.037-.382-.058-.598-.733.296-1.438.58-2.139.874-.171.073-.326.187-.477.297-.51.377-.772.872-.708 1.516.039.406.185.783.37 1.144.023.043.103.075.16.082.246.03.498.034.742.073.936.153 1.724.573 2.308 1.335.457.596.74 1.274.877 2 .07.38.29.594.584.772.142.085.295.153.448.213.703.267 1.44.333 2.182.356.863.027 1.726.025 2.59.036.152.002.305 0 .456 0 0-.057.005-.096 0-.134-.08-.548-.096-1.106-.027-1.663zm3.532-2.637c-1.777.007-3.236 1.331-3.284 3.188-.05 1.872 1.425 3.354 3.265 3.36 1.786.007 3.272-1.477 3.279-3.274.004-1.778-1.475-3.28-3.26-3.274zm-.021 5.411c-1.19 0-2.14-.95-2.137-2.141.002-1.192.95-2.14 2.142-2.137 1.194.002 2.137.945 2.137 2.141 0 1.192-.948 2.137-2.142 2.137z" transform="translate(-331 -466) translate(185 454) translate(107 4) translate(39 8)"/>
                    </g>
                </g>
            </g>
        </g>
    </g>
</svg>
