<svg xmlns="http://www.w3.org/2000/svg" width="32" height="32" viewBox="0 0 32 32">
    <g fill="none" fill-rule="evenodd">
        <g fill="#FFF" fill-rule="nonzero">
            <g>
                <g>
                    <g>
                        <path d="M18.96 6.982c1.61-1.601 4.182-2.099 6.25-1.213.267.115.46.355.516.64.055.286-.036.581-.242.787l-2.65 2.65c-.222.227-.222.59 0 .816l1.171 1.171c.226.223.59.223.816 0l2.664-2.664c.2-.2.486-.292.766-.245.28.047.52.227.644.482.42.863.545 2.021.346 3.177-.213 1.226-.765 2.329-1.557 3.11-1.377 1.354-3.512 1.771-5.856 1.146-.205-.054-.424.01-.568.165l-8.442 9.021c-.731.812-1.852 1.155-2.912.89-1.061-.265-1.89-1.093-2.153-2.154-.264-1.06.079-2.18.891-2.912l9.005-8.367c.16-.146.224-.37.165-.578-.668-2.38-.25-4.536 1.146-5.922zm2.626 12.111c1.581 1.45 3.132 2.846 3.858 3.45.332.275.533.678.553 1.11.02.431-.143.851-.45 1.156l-1.74 1.738c-.296.29-.688.452-1.098.453h-.057c-.43-.016-.834-.21-1.118-.533-.587-.683-1.918-2.134-3.389-3.696zm-8.158-13.76c1.444 0 2.544.647 2.968 1.03.18.167.348.347.5.54.082.1.137.176.15.194.205.28.215.657.026.947-.19.29-.54.433-.878.358-.038-.008-.076-.02-.112-.033-.12-.044-.243-.08-.368-.11-.26-.055-.526-.072-.791-.05-.568.047-1.237.324-1.533.553-.283.219-.497.515-.614.852-.158.46-.08.968.208 1.36l1.278 1.762.034.036.011.014c.42.02.82.19 1.125.48l-3.45 3.205c-.255-.329-.388-.736-.375-1.152-1.224-1.222-1.927-1.702-2.174-1.851-.331-.202-.565-.236-.609-.24-.058-.006-.111.02-.14.067-.03.047-.03.106 0 .152.103.17.157.363.157.56.001.29-.115.567-.322.77l-1.534 1.499c-.203.199-.476.31-.76.307-.285 0-.56-.112-.763-.312l-2.474-2.413-.03-.03c-.393-.423-.388-1.08.013-1.496l.016-.017 1.534-1.495c.203-.199.476-.31.76-.308h.057c.197.013.37-.126.402-.32.031-.222.115-.432.244-.614.342-.454.716-.883 1.12-1.282.606-.589 1.914-1.69 3.912-2.494.766-.31 1.585-.47 2.412-.469z" transform="translate(-439 -1605) translate(185 1481) translate(246 116) translate(8 8)"/>
                    </g>
                </g>
            </g>
        </g>
    </g>
</svg>
