<svg xmlns="http://www.w3.org/2000/svg" width="36" height="36" viewBox="0 0 36 36">
    <defs>
        <linearGradient id="prefix__a" x1="50%" x2="50%" y1="100%" y2="0%">
            <stop offset="0%" stop-color="#E61E4E"/>
            <stop offset="100%" stop-color="#D70566"/>
        </linearGradient>
    </defs>
    <g fill="none">
        <rect width="30" height="30" x="3" y="3" fill="#FFF" rx="4"/>
        <path fill="url(#prefix__a)" d="M18.07 18c.568.004 2.66.059 3.821.636.82.408 1.215 1.243 1.504 1.854l.022.006.022.008c.02-.002.041-.004.062-.004h.488c.264-.002.487.199.51.462.013.145-.039.288-.14.392-.025.025-.036.06-.03.095.005.035.027.066.058.082l.16.088c.211.118.402.241.53.412.07.093.256.339.369 1.602.063.712.072 1.446.022 1.92-.102.985-.295 1.58-.303 1.605-.06.183-.222.316-.414.34 0 .28-.224.503-.5.503H22.5c-.277 0-.5-.224-.5-.5l-.176-.01c-.165-.017-.302-.052-.445-.088-.287-.078-.581-.13-.878-.154-.955-.091-1.945-.123-2.503-.123-.57 0-1.517.032-2.471.123-.296.024-.589.076-.875.153-.199.051-.386.1-.655.1l-.008.09c-.042.233-.247.41-.492.41h-1.75c-.276 0-.5-.224-.5-.5v-.007l-.08-.017c-.156-.046-.281-.165-.333-.323-.008-.024-.2-.62-.304-1.604-.049-.474-.04-1.21.023-1.92.113-1.263.298-1.508.368-1.602.16-.213.418-.352.691-.5l.028-.02c.016-.017.027-.038.03-.061.006-.035-.005-.07-.03-.096-.102-.103-.154-.245-.143-.39.024-.263.247-.464.511-.462h.489c.02 0 .041.002.062.004.014-.005.028-.008.042-.01.292-.616.687-1.451 1.506-1.86C15.322 18.032 17.561 18 18 18zM29 3c2.21 0 4 1.79 4 4v6.5H3V7c0-2.21 1.79-4 4-4h22z"/>
        <rect width="18" height="3" x="9" y="7.5" fill="#FFF" rx="1"/>
        <path fill="#FFF" d="M18.005 24.501c.713 0 1.004.031 1.801.15.797.12 1.4.298 1.584.511.337.383-.165.756-.59.808v-.002c-.41.047-1.233.03-2.792.03-1.558 0-2.38.017-2.792-.03-.424-.047-.965-.448-.596-.806.246-.236.82-.412 1.584-.511.764-.1 1.088-.15 1.801-.15zm-4.99-1.788c.441.13.76.302.94.439.092.068.043.244-.074.253-.537.065-1.078.097-1.62.096-.331 0-.673-.094-.736-.389-.044-.198-.039-.31-.015-.422.02-.096.05-.165.207-.19.406-.062.633.017 1.298.213zm11.346-.21c.08.016.122.102.127.156.022.151.017.304-.015.453-.062.296-.406.388-.736.388-.552 0-1.104-.031-1.652-.095-.095-.01-.14-.177-.043-.253.179-.14.5-.31.94-.44.666-.196 1.05-.274 1.379-.209zM17.999 19c1.185 0 2.71.164 3.445.531.51.254.794.855 1.045 1.386l.032.068c.037.079.03.17-.017.244-.047.072-.13.115-.216.113-1.039-.028-3.226-.118-4.289-.118-1.063 0-3.25.092-4.29.12-.087.003-.17-.04-.217-.113-.047-.073-.053-.165-.016-.244l.033-.07c.25-.531.536-1.132 1.045-1.386.736-.366 2.26-.531 3.445-.531z"/>
    </g>
</svg>
