<svg xmlns="http://www.w3.org/2000/svg" width="24" height="24" viewBox="0 0 24 24">
    <defs>
        <linearGradient id="prefix__a" x1="50%" x2="50%" y1="0%" y2="100%">
            <stop offset="0%" stop-color="#E61E4E"/>
            <stop offset="100%" stop-color="#D70566"/>
        </linearGradient>
    </defs>
    <g fill="none">
        <rect width="24" height="24" fill="url(#prefix__a)" rx="4"/>
        <path fill="#FFF" d="M10.792 15.999h-2.9l-2.99-5.611h-.049c.07.883.107 1.556.107 2.021V16H3V8.033h2.889l2.977 5.537H8.9c-.046-.644-.072-1.289-.079-1.934V8.033h1.971V16v-.001zm5.928-3.259l-.352-1.307c-.082-.291-.182-.667-.3-1.128-.118-.461-.194-.792-.233-.993-.06.307-.125.612-.198.916-.1.426-.318 1.263-.658 2.512h1.741zm.862 3.259l-.403-1.493h-2.66l-.413 1.493h-2.429L14.345 8h2.95L20 15.999h-2.418z"/>
    </g>
</svg>
