<svg xmlns="http://www.w3.org/2000/svg" width="32" height="32" viewBox="0 0 32 32">
    <g fill="none" fill-rule="evenodd">
        <g fill="#FFF" fill-rule="nonzero">
            <g>
                <g>
                    <g>
                        <path d="M29.237 16.679c-.2-2.245-.53-2.682-.654-2.847-.286-.38-.744-.628-1.229-.889-.055-.029-.094-.083-.104-.145-.01-.062.01-.125.054-.17.181-.184.273-.439.252-.696-.044-.468-.439-.825-.909-.82h-.866c-.038 0-.075.002-.112.006-.025-.01-.051-.02-.078-.026-.513-1.085-1.216-2.57-2.673-3.295-2.16-1.075-6.14-1.13-6.918-1.13-.778 0-4.758.055-6.916 1.128-1.456.725-2.159 2.21-2.672 3.296l-.005.008c-.025.004-.05.01-.075.02-.037-.005-.074-.008-.11-.008h-.87c-.47-.004-.864.353-.908.82-.02.258.074.51.255.693.044.046.064.109.054.17-.01.063-.049.117-.104.146-.485.262-.945.51-1.228.889-.125.167-.454.602-.654 2.847-.111 1.263-.128 2.57-.04 3.413.182 1.75.525 2.808.54 2.852.106.326.392.56.732.603v.012c0 .49.398.888.89.888h3.11c.491 0 .89-.398.89-.888.478 0 .81-.086 1.163-.177.51-.137 1.03-.229 1.556-.273 1.695-.162 3.38-.217 4.392-.217.991 0 2.751.055 4.449.217.528.044 1.05.136 1.562.274.337.087.658.167 1.102.175 0 .49.398.889.889.889h3.11c.492 0 .89-.398.89-.889v-.007c.341-.042.628-.277.735-.604.015-.043.357-1.101.54-2.851.087-.843.072-2.149-.04-3.414zM8.018 11.85c.445-.945.953-2.014 1.858-2.464 1.308-.651 4.018-.945 6.124-.945s4.816.291 6.124.945c.905.45 1.411 1.52 1.858 2.464l.055.12c.066.14.055.304-.03.433-.083.13-.229.206-.383.202-1.846-.05-5.735-.21-7.624-.21-1.889 0-5.778.163-7.627.213-.154.004-.3-.072-.384-.201-.084-.13-.095-.293-.029-.433.02-.041.04-.083.058-.124zm.663 4.423c-.956.115-1.917.172-2.88.17-.589 0-1.196-.166-1.309-.69-.077-.353-.069-.552-.027-.751.035-.17.09-.293.368-.336.723-.111 1.126.028 2.309.376.784.23 1.35.538 1.671.781.162.12.076.434-.132.45zM20.98 20.83c-.731.083-2.193.053-4.963.053s-4.232.03-4.963-.053c-.755-.084-1.716-.797-1.06-1.433.438-.419 1.458-.732 2.816-.908 1.358-.176 1.933-.267 3.201-.267s1.785.056 3.201.267c1.417.212 2.487.53 2.816.909.599.68-.294 1.344-1.048 1.435v-.003zm6.528-5.077c-.111.526-.722.69-1.31.69-.98.001-1.96-.056-2.935-.17-.17-.015-.249-.314-.076-.45.317-.249.889-.55 1.671-.78 1.183-.349 1.864-.488 2.45-.372.143.028.218.182.227.278.04.268.03.54-.027.804z" transform="translate(-439 -1545) translate(185 1481) translate(246 56) translate(8 8)"/>
                    </g>
                </g>
            </g>
        </g>
    </g>
</svg>
