<svg xmlns="http://www.w3.org/2000/svg" width="36" height="36" viewBox="0 0 36 36">
    <defs>
        <linearGradient id="prefix__a" x1="50%" x2="50%" y1="0%" y2="100%">
            <stop offset="0%" stop-color="#1BA4CE"/>
            <stop offset="100%" stop-color="#1E45F3"/>
        </linearGradient>
    </defs>
    <path fill="url(#prefix__a)" d="M18 3c8.284 0 15 6.716 15 15 0 8.284-6.716 15-15 15-8.284 0-15-6.716-15-15C3 9.716 9.716 3 18 3zm0 2.727C11.222 5.727 5.727 11.222 5.727 18c0 2.597.807 5.005 2.183 6.988 1.534-2.027 5.14-2.897 10.09-2.897s8.556.87 10.09 2.897c1.376-1.983 2.183-4.391 2.183-6.988 0-6.778-5.495-12.273-12.273-12.273zm0 4.091c3.292 0 5.455 2.62 5.455 5.727 0 4.473-2.43 6.546-5.455 6.546-3.053 0-5.455-2.145-5.455-6.818 0-3.06 2.154-5.455 5.455-5.455z"/>
</svg>
