<svg xmlns="http://www.w3.org/2000/svg" width="32" height="32" viewBox="0 0 32 32">
    <g fill="none" fill-rule="evenodd">
        <g fill="#FFF" fill-rule="nonzero">
            <g>
                <g>
                    <path d="M15.98 1.566c8.09 0 14.647 6.557 14.647 14.647S24.07 30.86 15.98 30.86 1.333 24.303 1.333 16.213 7.89 1.566 15.98 1.566zm0 1.374c-7.33 0-13.273 5.942-13.273 13.273 0 7.33 5.943 13.274 13.273 13.274 7.332 0 13.274-5.943 13.274-13.274 0-7.331-5.942-13.273-13.274-13.273zm0 1.058c6.736 0 12.215 5.48 12.215 12.215 0 6.736-5.48 12.215-12.215 12.215-6.735 0-12.215-5.48-12.215-12.215 0-6.735 5.48-12.215 12.215-12.215zm0 .233c-6.607 0-11.982 5.375-11.982 11.982 0 6.607 5.375 11.983 11.982 11.983 6.607 0 11.983-5.376 11.983-11.983S22.587 4.231 15.98 4.231zm.062 1.206c.26 0 .47.008.726.026.238.017.417.095.594.255 2.425 2.195 3.02 3.684 3.525 5.15l.112.327c.56 1.639.59 2.875.6 4.118.007 1.169-.172 2.774-.91 5.42-.062.228-.018.6.252.67l.088.012h.292c.115 0 .207-.113.23-.229l.007-.058v-.45c0-.18.16-.317.338-.289 1.242.198 2.38.765 3.284 1.614.143.134.143.361 0 .496-.903.847-2.042 1.415-3.284 1.612-.156.025-.297-.077-.33-.223l-.008-.065v-.492c0-.112-.075-.191-.178-.215l-.065-.007H11.298c-.068 0-.128 0-.187.019l-.059.026-1.254.736c-.078.045-.155.066-.246.066l-1.329.001c-.099 0-.158-.033-.208-.119-.574-.965-1.245-1.875-1.977-2.717-.281-.323-.104-.736.33-.736h3.044c.049 0 .1.011.148.029l.07.03 1.937.907c.464.217.815-.123.76-.509-.636-4.415-4.469-5.424-6.618-5.8-.239-.042-.401-.254-.364-.493.192-1.244.6-2.472 1.19-3.497.102-.176.314-.232.511-.182.923.238 2.131.617 3.388 1.278.653.344 1.105.421 1.39.183-1.397-1.272-2.92-2.25-3.893-2.766-.149-.08-.246-.215-.095-.39.785-.911 1.72-1.69 2.766-2.297.175-.101.35-.06.526.04 1.046.587 2.308 1.415 3.526 2.576.376.357.82.68 1.403.625-.92-1.58-2.254-2.843-3.237-3.685-.202-.175-.26-.432.11-.543.987-.296 2.03-.454 3.112-.454zm1.893 12.025c-.745 0-1.35.604-1.35 1.35 0 .745.605 1.35 1.35 1.35.746 0 1.35-.605 1.35-1.35 0-.746-.604-1.35-1.35-1.35z" transform="translate(-185 -1989) translate(185 1933) translate(0 56)"/>
                </g>
            </g>
        </g>
    </g>
</svg>
