<svg xmlns="http://www.w3.org/2000/svg" width="32" height="32" viewBox="0 0 32 32">
    <g fill="none" fill-rule="evenodd">
        <g fill="#FFF" fill-rule="nonzero">
            <g>
                <g>
                    <g>
                        <path d="M21.755 7.465h2.763V5.333h-3.644l-2.131 1.069h-5.508l-2.132-1.069H7.465v2.132h2.751l2.132 1.069h2.364l-.426 2.131H9.534l-2.069 5.326h4.19l2.176 5.332h-3.166v-2.131c0-.586-.477-1.069-1.068-1.069H6.402c-.585 0-1.069.478-1.069 1.069v6.395c0 .585.478 1.068 1.069 1.068h3.2c.586 0 1.069-.477 1.069-1.068v-2.132h10.658v2.132c0 .585.478 1.068 1.069 1.068h3.2c.585 0 1.069-.477 1.069-1.068v-6.395c0-.586-.478-1.069-1.069-1.069h-3.2c-.586 0-1.069.478-1.069 1.069v2.131h-3.217l2.165-5.332h4.241l-2.08-5.331h-4.741l-.427-2.132h2.354l2.131-1.063zm-3.632 7.464c0 1.182-.96 2.131-2.132 2.131-1.182 0-2.131-.95-2.131-2.131 0-1.171.95-2.132 2.131-2.132 1.171 0 2.132.955 2.132 2.132z" transform="translate(-685 -1725) translate(185 1481) translate(492 236) translate(8 8)"/>
                    </g>
                </g>
            </g>
        </g>
    </g>
</svg>
