<svg xmlns="http://www.w3.org/2000/svg" width="32" height="32" viewBox="0 0 32 32">
    <g fill="none" fill-rule="evenodd">
        <g fill="#FFF" fill-rule="nonzero">
            <g>
                <g>
                    <g>
                        <path d="M16.58 4.22c4.063 0 6.741.35 7.403.466.663.114.65.33.726.483.077.153 2.038 4.724 2.152 5.258 0 0 .255-.255.484-.255h.083c.39 0 1.674.054 1.674 1.35 0 .815-.23 1.018-.395 1.018h-.446s.242.599.242.879.19.534.19.814c0 .28.344.84.344 1.286v2.241c0 .125-.092.65-.185 1.202.037.8.049 1.987.048 3.197l-.001.558c-.007 1.952-.04 3.82-.047 4.076-.012.44-.298.917-.661.917h-2.273c-.497 0-.668-.344-.668-.764v-3.492c-2.314.025-6.512.073-8.67.073h-.378c-2.241-.005-6.107-.05-8.292-.073v3.492c0 .42-.172.764-.669.764H4.97c-.363 0-.65-.477-.661-.917-.007-.268-.044-2.305-.048-4.355v-.558c0-1.111.014-2.179.048-2.918-.094-.552-.186-1.077-.186-1.202v-2.24c0-.446.344-1.006.344-1.287 0-.28.19-.534.19-.814 0-.28.242-.879.242-.879h-.445c-.166 0-.395-.203-.395-1.018 0-1.237 1.17-1.343 1.616-1.35h.14c.23 0 .485.255.485.255.052-.242.48-1.306.941-2.415l.199-.476c.497-1.185.975-2.293 1.012-2.367.076-.153.063-.37.726-.484.661-.115 3.34-.465 7.403-.465zm8.556 14.114c-.368 0-.667.299-.667.667 0 .368.299.666.667.666.368 0 .666-.298.666-.666 0-.368-.298-.667-.666-.667zm-17 0c-.37 0-.668.299-.668.667 0 .368.299.666.667.666.368 0 .667-.298.667-.666 0-.368-.3-.667-.667-.667zm13.765-4.78H11.549c-.207 0-.411.048-.597.14-.658.33-.925 1.13-.596 1.79l1.333 2.666c.226.452.688.737 1.193.737h7.685c.505 0 .967-.285 1.193-.737l1.333-2.667c.093-.185.14-.389.14-.596 0-.736-.596-1.333-1.332-1.333zm-1.996 1.333c.453 0 .82.299.82.667 0 .103-.03.205-.087.298l-.82 1.333c-.138.226-.422.369-.732.369h-4.723c-.31 0-.594-.143-.733-.369l-.819-1.333c-.202-.33-.038-.73.367-.895.113-.046.239-.07.366-.07h6.361zm5.897-.553c-.735 0-1.333.597-1.333 1.333 0 .737.598 1.334 1.333 1.334.738 0 1.334-.597 1.334-1.334 0-.736-.596-1.333-1.334-1.333zm-18.334 0c-.737 0-1.333.597-1.333 1.333 0 .737.596 1.334 1.333 1.334.736 0 1.334-.597 1.334-1.334 0-.736-.598-1.333-1.334-1.333zm9.315-9c-2.146 0-5.49.14-6.673.367 0 0-.038.084-.102.234l-.09.21c-.44 1.036-1.509 3.643-1.802 5.188.117-.01 1.726-.141 7.93-.15h1.473c6.205.009 7.813.14 7.924.15-.286-1.545-1.355-4.152-1.796-5.188l-.09-.21-.101-.234c-1.183-.228-4.528-.368-6.673-.368z" transform="translate(-685 -1545) translate(185 1481) translate(492 56) translate(8 8)"/>
                    </g>
                </g>
            </g>
        </g>
    </g>
</svg>
