<svg xmlns="http://www.w3.org/2000/svg" width="32" height="32" viewBox="0 0 32 32">
    <g fill="none" fill-rule="evenodd">
        <g fill="#FFF" fill-rule="nonzero">
            <g>
                <g>
                    <g>
                        <path d="M26.878 24.416v2.526l-.842.143v1.656c-.002.327-.266.59-.593.592l-2.245-.252c-.326-.002-.59-.266-.592-.592v-1.036H9.614v1.036c-.002.158-.066.309-.18.42-.113.11-.266.171-.424.169l-2.245.253c-.328-.004-.591-.27-.59-.598v-1.648l-.842-.143v-2.526h21.545zm-2.995-21.75v.907l-.629.23v15.48c1.718.02 3.088 1.498 3.368 3.143l.253 1.532H5.333l.264-1.532c.298-1.645 1.65-3.124 3.365-3.144V3.803l-.628-.23v-.906l1.647.505v3.267c.545-.646 1.322-1.09 2.01-1.09h8.238c.687 0 1.465.444 2.01 1.09V3.172l1.644-.505zm-2.551 13.739H10.907l-.01 6.667h10.435v-6.667zm4.28 5.286l-3.085.014c-.181 0-.328.147-.328.328v.634c0 .182.147.329.328.329h3.088c.181 0 .328-.147.328-.329v-.634c.004-.09-.03-.178-.092-.242-.063-.065-.149-.101-.24-.1zm-15.925.014H6.599c-.181 0-.328.147-.328.328v.62c0 .182.147.329.328.329h3.088c.18 0 .328-.147.328-.329v-.62c0-.181-.147-.328-.328-.328zM15.74 9.044H9.995v4.858c.033-.047.07-.091.11-.132.167-.168.394-.263.631-.267 0 0 1.67-.468 5.005-.502V9.044zm6.503 0h-5.76v3.935c1.682-.01 3.36.158 5.005.502.244.003.477.104.645.28.04.041.078.085.11.133v-4.85zm-14.44.477c.494 0 .895.4.895.894v1.434c0 .494-.4.894-.894.894s-.894-.4-.894-.894v-1.434c0-.494.4-.894.894-.894zm16.687 0c.493 0 .894.4.894.894v1.434c0 .494-.4.894-.894.894s-.894-.4-.894-.894v-1.434c0-.494.4-.894.894-.894z" transform="translate(-193 -1725) translate(185 1481) translate(0 236) translate(8 8)"/>
                    </g>
                </g>
            </g>
        </g>
    </g>
</svg>
