<svg xmlns="http://www.w3.org/2000/svg" width="36" height="36" viewBox="0 0 36 36">
    <defs>
        <linearGradient id="prefix__a" x1="50%" x2="50%" y1="100%" y2="0%">
            <stop offset="0%" stop-color="#E12F9B"/>
            <stop offset="100%" stop-color="#7A3DE4"/>
        </linearGradient>
    </defs>
    <path fill="url(#prefix__a)" d="M10 16.5c1.105 0 2 .895 2 2V31c0 1.105-.895 2-2 2H5c-1.105 0-2-.895-2-2V18.5c0-1.105.895-2 2-2h5zM20.5 3c1.105 0 2 .895 2 2v26c0 1.105-.895 2-2 2h-5c-1.105 0-2-.895-2-2V5c0-1.105.895-2 2-2h5zM31 9c1.105 0 2 .895 2 2v20c0 1.105-.895 2-2 2h-5c-1.105 0-2-.895-2-2V11c0-1.105.895-2 2-2h5z"/>
</svg>
